<!DOCTYPE svg PUBLIC "-//W3C//DTD SVG 20010904//EN" "http://www.w3.org/TR/2001/REC-SVG-20010904/DTD/svg10.dtd">
<svg version="1.0" xmlns="http://www.w3.org/2000/svg" width="1500px" height="1500px" viewBox="0 0 15000 15000" preserveAspectRatio="xMidYMid meet">
<g id="layer1" fill="#4c0bb4" stroke="none">
 <path d="M6665 7713 c-66 -27 -173 -93 -189 -117 -13 -21 -22 -23 -73 -21 -32 2 -62 0 -68 -5 -9 -6 -44 -10 -225 -26 -19 -2 -78 -6 -130 -9 -52 -3 -120 -8 -150 -10 -174 -11 -440 -86 -560 -156 -8 -5 -26 -14 -40 -21 -14 -7 -37 -23 -51 -37 -14 -15 -39 -33 -55 -42 -32 -17 -119 -138 -129 -181 -4 -15 -13 -32 -20 -38 -8 -6 -12 -17 -9 -24 3 -8 -2 -16 -11 -20 -9 -3 -14 -10 -11 -15 7 -11 -19 -77 -34 -86 -6 -4 -8 -15 -5 -26 4 -11 -5 -42 -20 -75 -14 -30 -27 -65 -29 -77 -1 -12 -8 -35 -14 -50 -7 -16 -9 -33 -6 -38 3 -6 0 -18 -8 -27 -17 -19 -18 -66 -3 -70 6 -1 14 13 18 30 5 20 33 57 68 92 32 32 61 68 65 79 7 22 201 217 215 217 5 0 24 14 44 32 20 17 51 38 68 47 18 9 31 22 30 28 -2 7 29 31 67 54 39 23 70 44 70 48 0 10 133 72 170 80 17 3 31 11 30 16 -1 12 59 27 125 30 34 1 49 6 47 14 -2 10 11 11 55 5 32 -4 65 -7 73 -6 8 2 112 4 230 6 118 2 242 9 274 15 33 6 76 11 96 11 21 0 63 13 96 29 40 21 63 27 73 21 13 -8 12 -9 -6 -10 -37 0 -35 -17 4 -40 35 -20 38 -21 49 -5 12 16 14 16 36 -1 13 -11 24 -27 26 -37 3 -17 2 -17 -21 -2 -17 11 -27 13 -32 6 -3 -6 -3 -11 2 -12 4 0 -2 -4 -15 -10 -13 -5 -20 -13 -17 -19 3 -5 -1 -10 -9 -10 -24 0 -29 -20 -11 -39 15 -18 14 -19 -14 -29 -17 -6 -31 -15 -31 -20 0 -5 -9 -12 -21 -15 -12 -3 -18 -10 -14 -17 4 -6 1 -17 -5 -25 -7 -8 -9 -15 -4 -15 5 -1 -4 -11 -20 -24 l-29 -24 22 -12 c17 -8 20 -15 12 -24 -8 -10 -6 -18 9 -31 12 -11 17 -22 11 -29 -5 -6 -7 -20 -5 -30 1 -11 -1 -27 -6 -36 -6 -11 -5 -21 3 -29 9 -9 7 -16 -9 -29 -13 -10 -20 -25 -18 -37 1 -11 -5 -29 -15 -40 -10 -11 -18 -31 -16 -45 1 -14 -1 -29 -6 -35 -4 -5 -9 -14 -11 -20 -1 -5 -9 -10 -16 -11 -21 -4 -43 -26 -38 -40 7 -20 -18 -36 -33 -21 -10 9 -15 9 -24 -4 -7 -9 -23 -15 -37 -14 -14 2 -41 -4 -60 -13 -19 -9 -43 -16 -53 -17 -24 -3 -67 -45 -67 -66 0 -10 -12 -31 -26 -48 -14 -17 -27 -37 -28 -45 -1 -7 -14 -28 -29 -45 -15 -18 -27 -37 -27 -42 0 -6 -14 -31 -32 -57 -18 -26 -32 -49 -32 -52 1 -3 -18 -29 -42 -58 -23 -29 -46 -62 -50 -75 -4 -12 -17 -35 -30 -50 -13 -16 -22 -33 -19 -37 3 -5 70 56 148 137 141 145 289 273 370 319 23 13 43 28 43 34 1 5 2 23 3 39 1 28 59 101 79 101 5 0 17 11 26 25 9 14 23 25 30 25 8 0 34 18 57 40 24 22 48 40 54 40 17 0 58 47 51 58 -3 5 5 14 18 20 14 6 27 20 30 30 9 28 161 92 219 92 25 0 49 6 56 13 6 8 30 19 53 26 24 7 48 17 54 22 7 6 47 11 90 14 44 2 99 11 123 19 24 9 55 16 69 16 14 0 34 7 43 16 10 9 44 20 76 23 38 4 57 11 56 19 -2 7 7 12 21 12 27 0 116 37 116 48 0 4 30 21 66 36 67 30 129 79 129 103 0 8 5 17 12 21 19 12 83 96 83 110 0 7 9 31 19 55 27 60 34 80 36 100 2 9 3 18 5 20 1 1 3 10 5 21 2 10 8 23 13 28 11 11 0 62 -19 84 -19 23 -62 14 -64 -14 -1 -13 -11 -30 -23 -38 -12 -8 -22 -23 -22 -33 0 -21 -19 -41 -34 -35 -7 3 -25 -9 -41 -26 -16 -16 -38 -30 -49 -30 -12 0 -41 -14 -65 -30 -24 -17 -55 -30 -68 -30 -14 0 -37 -6 -51 -14 -15 -8 -40 -19 -55 -25 -15 -6 -25 -16 -22 -21 4 -6 -7 -10 -24 -10 -17 0 -68 -11 -113 -24 -119 -34 -159 -40 -156 -24 2 10 -10 12 -52 8 -71 -6 -212 -6 -270 0 -30 3 -44 1 -43 -6 1 -6 -17 -14 -40 -17 -33 -5 -48 -2 -70 14 -16 11 -35 18 -43 15 -9 -4 -14 0 -12 9 2 7 -1 13 -7 12 -5 -1 -9 -5 -7 -9 1 -5 -5 -8 -13 -8 -19 0 -19 10 0 36 17 25 11 34 -22 34 -15 0 -22 4 -18 11 4 6 -2 13 -14 16 -11 3 -18 9 -15 14 3 5 -5 13 -18 18 -13 6 -19 10 -14 10 5 1 3 8 -4 16 -10 12 -9 15 7 15 11 0 28 9 38 20 16 18 16 20 1 25 -9 3 -23 7 -33 10 -14 5 -11 11 16 39 34 35 35 61 3 49 -14 -6 -15 -4 -5 9 26 31 -17 37 -82 11z m222 -390 c-4 -3 -10 -3 -14 0 -3 4 0 7 7 7 7 0 10 -3 7 -7z"/>
 <path d="M6766 7561 c-4 -5 -2 -12 3 -15 5 -4 12 -2 15 3 4 5 2 12 -3 15 -5 4 -12 2 -15 -3z"/>
 <path d="M6666 7341 c-4 -5 -2 -12 3 -15 5 -4 12 -2 15 3 4 5 2 12 -3 15 -5 4 -12 2 -15 -3z"/>
 <path d="M5906 5921 c-4 -5 -2 -12 3 -15 5 -4 12 -2 15 3 4 5 2 12 -3 15 -5 4 -12 2 -15 -3z"/>
 <path d="M5876 5881 c-4 -5 -2 -12 3 -15 5 -4 12 -2 15 3 4 5 2 12 -3 15 -5 4 -12 2 -15 -3z"/>
 <path d="M5846 5841 c-4 -5 -2 -12 3 -15 5 -4 12 -2 15 3 4 5 2 12 -3 15 -5 4 -12 2 -15 -3z"/>
 <path d="M5826 5811 c-4 -5 -2 -12 3 -15 5 -4 12 -2 15 3 4 5 2 12 -3 15 -5 4 -12 2 -15 -3z"/>
 <path d="M5806 5781 c-4 -5 -2 -12 3 -15 5 -4 12 -2 15 3 4 5 2 12 -3 15 -5 4 -12 2 -15 -3z"/>
 <path d="M7856 5691 c-4 -5 -2 -12 3 -15 5 -4 12 -2 15 3 4 5 2 12 -3 15 -5 4 -12 2 -15 -3z"/>
 <path d="M7756 5661 c-4 -5 -2 -12 3 -15 5 -4 12 -2 15 3 4 5 2 12 -3 15 -5 4 -12 2 -15 -3z"/>
 <path d="M7586 5611 c-4 -5 -2 -12 3 -15 5 -4 12 -2 15 3 4 5 2 12 -3 15 -5 4 -12 2 -15 -3z"/>
 <path d="M7456 5573 c-4 -5 -12 -9 -17 -9 -5 -1 -11 -3 -14 -4 -3 -1 -9 -3 -15 -4 -5 0 -10 -4 -10 -8 0 -5 0 -11 0 -14 0 -4 7 -1 15 6 8 7 15 9 15 5 0 -4 6 -3 13 3 6 6 15 11 20 11 8 1 11 11 5 17 -3 2 -8 1 -12 -3z"/>
 <path d="M7236 5491 c-4 -5 -2 -12 3 -15 5 -4 12 -2 15 3 4 5 2 12 -3 15 -5 4 -12 2 -15 -3z"/>
 <path d="M7167 5464 c-38 -20 -24 -38 14 -19 16 9 27 20 24 25 -7 12 -4 13 -38 -6z"/>
 <path d="M7036 5387 c-93 -57 -211 -169 -270 -258 -27 -41 -57 -85 -66 -99 -36 -55 -70 -194 -70 -290 0 -124 42 -306 95 -409 76 -150 329 -340 503 -376 76 -17 230 -19 379 -5 122 11 215 46 325 122 97 67 147 116 224 217 77 102 122 187 106 203 -8 8 -16 7 -30 -3 -10 -8 -65 -49 -120 -91 -56 -42 -142 -97 -191 -121 -82 -41 -130 -56 -311 -92 -97 -19 -215 -11 -302 21 -40 14 -86 28 -103 31 -16 3 -58 25 -91 49 -111 79 -191 188 -240 329 -26 74 -28 91 -28 230 0 137 2 157 27 230 15 44 33 90 40 103 20 35 86 111 154 175 35 33 60 63 57 68 -8 13 -13 11 -88 -34z"/>
 <path d="M4629 4995 c0 0 -3 -40 -5 -89 -2 -48 -8 -95 -13 -104 -6 -10 -4 -27 6 -47 14 -29 13 -34 -6 -66 -11 -19 -23 -33 -26 -31 -3 1 -5 -1 -4 -5 0 -5 7 -7 15 -5 12 3 13 0 3 -16 -10 -15 -8 -26 8 -58 11 -21 59 -118 106 -216 128 -259 253 -441 469 -678 184 -203 458 -435 678 -574 104 -65 302 -165 448 -225 118 -48 312 -115 363 -124 13 -3 30 -7 38 -9 8 -1 27 16 44 40 33 50 77 84 192 150 83 49 93 52 110 42 15 -9 35 -6 35 5 0 6 -9 11 -20 11 -11 1 -21 2 -22 4 -3 2 -14 4 -58 13 -148 31 -494 156 -630 229 -207 110 -420 316 -583 563 -159 242 -233 476 -246 780 -6 145 -16 182 -33 117 -13 -48 -110 -184 -155 -216 -58 -40 -135 -46 -214 -17 -31 12 -60 29 -63 39 -10 30 -40 71 -68 92 -16 12 -28 27 -28 34 0 7 -13 25 -30 41 -16 16 -30 36 -30 44 0 9 -23 45 -50 80 -28 35 -53 76 -56 90 -10 45 -14 52 -23 46 -5 -3 -13 -1 -16 5 -4 7 -11 8 -18 1 -14 -11 -38 4 -55 34 -6 12 -21 20 -36 20 -14 1 -26 1 -27 0z"/>
 <path d="M5516 4961 c-4 -5 -2 -12 3 -15 5 -4 12 -2 15 3 4 5 2 12 -3 15 -5 4 -12 2 -15 -3z"/>
 <path d="M8936 4805 c-27 -8 -53 -18 -59 -24 -6 -6 -28 -11 -49 -11 -20 0 -52 -6 -70 -14 -88 -38 -186 -71 -208 -71 -14 0 -25 -4 -25 -10 0 -5 11 -10 25 -11 14 0 32 -3 40 -7 8 -3 91 -14 183 -25 139 -15 170 -16 174 -5 3 7 10 13 15 13 17 0 112 80 114 97 2 8 -1 23 -6 32 -5 9 -11 23 -13 31 -6 20 -58 22 -121 5z"/>
 <path d="M4527 4804 c-4 -4 -3 -12 1 -18 4 -6 7 -14 8 -18 1 -5 3 -10 4 -13 1 -3 3 -9 4 -15 0 -5 4 -10 9 -10 4 0 10 0 13 0 4 0 1 7 -6 15 -7 8 -9 15 -5 15 4 0 1 7 -6 17 -8 9 -12 18 -11 20 6 8 -4 13 -11 7z"/>
 <path d="M8286 4571 c-4 -5 -2 -12 3 -15 5 -4 12 -2 15 3 4 5 2 12 -3 15 -5 4 -12 2 -15 -3z"/>
 <path d="M7116 2981 c-4 -5 -2 -12 4 -16 5 -3 10 -3 10 1 0 3 6 1 14 -5 10 -8 16 -9 21 -1 3 5 4 11 1 11 -3 1 -9 2 -13 3 -5 1 -13 5 -20 9 -6 4 -14 3 -17 -2z"/>
 <path d="M6756 2751 c-4 -5 -2 -12 3 -15 5 -4 12 -2 15 3 4 5 2 12 -3 15 -5 4 -12 2 -15 -3z"/>
 <path d="M6796 2741 c-4 -5 -2 -12 3 -15 5 -4 12 -2 15 3 4 5 2 12 -3 15 -5 4 -12 2 -15 -3z"/>
 <path d="M6866 2721 c-4 -5 -2 -12 3 -15 5 -4 12 -2 15 3 4 5 2 12 -3 15 -5 4 -12 2 -15 -3z"/>
 <path d="M7168 2693 c-7 -14 -3 -33 6 -33 12 -1 17 28 6 35 -5 3 -10 2 -12 -2z"/>
 <path d="M7836 2681 c-4 -5 -2 -12 3 -15 5 -4 12 -2 15 3 4 5 2 12 -3 15 -5 4 -12 2 -15 -3z"/>
 </g>
<g id="layer2" fill="#4f11d1" stroke="none">
 <path d="M5790 7125 c-14 -8 -52 -14 -87 -15 -34 0 -74 -5 -89 -10 -19 -8 -30 -8 -38 0 -17 17 -41 12 -111 -25 -36 -18 -72 -32 -80 -29 -18 7 -138 -74 -129 -87 3 -5 -6 -25 -21 -44 -14 -19 -23 -35 -19 -35 4 0 0 -8 -9 -18 -12 -13 -14 -21 -6 -29 8 -8 1 -22 -25 -51 -20 -22 -36 -46 -36 -54 0 -9 -9 -27 -20 -41 -11 -14 -20 -30 -20 -37 0 -6 -5 -21 -12 -33 -6 -12 -11 -39 -11 -61 1 -21 -7 -52 -16 -70 -22 -39 -12 -87 14 -66 8 7 15 21 15 30 0 10 10 31 23 47 27 35 41 58 64 103 9 19 29 51 45 71 15 20 28 41 28 46 0 5 21 24 46 42 25 18 43 35 40 38 -3 3 5 14 17 24 12 10 18 18 13 19 -12 0 44 60 56 60 4 0 30 16 57 35 26 19 58 35 69 35 12 0 36 9 54 20 18 11 42 20 54 20 11 0 35 7 51 15 23 12 37 13 58 5 15 -6 31 -7 36 -4 18 10 160 6 174 -6 10 -8 15 -8 20 0 5 8 11 5 21 -7 7 -10 14 -14 14 -10 0 5 13 -1 29 -12 15 -11 31 -18 33 -15 12 11 59 -17 68 -41 5 -14 15 -25 21 -25 8 0 8 -4 1 -13 -13 -16 -10 -46 6 -56 9 -5 7 -13 -8 -26 -11 -10 -18 -25 -16 -32 4 -8 -5 -18 -20 -23 -14 -6 -22 -15 -19 -21 4 -5 -1 -19 -11 -30 -9 -10 -14 -19 -9 -19 14 0 -19 -32 -43 -41 -14 -5 -22 -13 -18 -16 4 -4 -17 -31 -46 -60 -29 -29 -49 -53 -45 -53 4 0 -18 -32 -49 -70 -31 -39 -54 -73 -51 -77 8 -7 -32 -57 -102 -131 -41 -43 -49 -57 -42 -71 8 -14 2 -30 -26 -71 -31 -46 -39 -63 -42 -91 -1 -4 -9 -9 -20 -12 -19 -5 -99 -131 -106 -167 -5 -26 -134 -263 -198 -362 -57 -91 -123 -153 -171 -162 -38 -7 -66 1 -66 19 0 19 -27 38 -35 25 -10 -17 -25 -11 -25 10 0 11 -15 40 -32 66 -18 25 -34 60 -35 77 -6 80 -9 92 -19 90 -8 -1 -11 16 -10 50 1 29 -2 66 -6 82 -4 17 -9 48 -11 70 -2 22 -8 42 -13 43 -9 4 -30 -48 -39 -96 -13 -74 -34 -162 -40 -172 -4 -6 -9 -25 -11 -43 -2 -18 -9 -70 -15 -117 -16 -117 -14 -451 3 -516 8 -30 31 -74 56 -106 23 -30 42 -61 42 -70 0 -8 14 -27 30 -43 17 -16 30 -34 30 -41 0 -6 16 -26 35 -43 19 -17 35 -37 35 -45 0 -8 6 -19 13 -23 6 -4 17 -17 23 -28 15 -28 110 -64 168 -65 96 0 174 61 259 204 l41 68 8 197 9 196 61 185 c80 240 185 451 304 610 47 63 92 130 100 149 7 18 32 55 55 82 22 27 37 49 33 49 -4 0 4 12 18 28 13 15 33 45 43 67 9 22 27 50 38 63 12 12 22 29 23 37 1 8 14 29 28 46 14 17 26 39 26 50 0 10 11 25 24 34 19 12 23 23 21 55 -1 22 2 43 7 46 5 3 4 11 -2 19 -8 10 -8 15 0 20 8 5 8 10 0 20 -6 8 -7 16 -2 19 5 3 8 20 7 38 -2 18 1 38 6 45 7 7 6 13 0 17 -16 10 34 56 61 56 24 0 94 61 83 72 -4 3 11 20 33 38 29 23 38 37 37 55 -4 36 -13 45 -48 46 -37 1 -79 12 -76 19 5 8 -35 50 -47 50 -6 0 -17 -7 -25 -16 -11 -14 -13 -14 -21 0 -12 21 -45 20 -56 0 -8 -15 -10 -15 -15 0 -5 13 -22 16 -80 16 -40 0 -77 4 -83 10 -6 6 -21 6 -42 1 -18 -6 -34 -6 -37 -1 -3 5 -17 4 -30 -2 -19 -8 -31 -8 -48 0 -12 6 -33 11 -47 10 -14 -1 -36 2 -50 5 -15 4 -35 1 -50 -8z"/>
 <path d="M5025 6386 c-12 -8 -16 -19 -11 -31 6 -17 8 -16 31 5 35 33 19 55 -20 26z"/>
 <path d="M7675 5638 c-420 -123 -508 -162 -615 -270 -160 -161 -170 -176 -211 -308 -21 -65 -24 -95 -24 -220 1 -132 3 -152 29 -225 33 -97 81 -177 148 -251 62 -67 162 -140 203 -147 17 -3 63 -17 103 -31 87 -32 205 -40 302 -21 181 36 229 51 311 92 49 24 135 79 191 121 141 107 139 106 136 96 -2 -5 2 -10 7 -11 6 -2 10 0 11 5 1 9 16 46 44 107 11 25 25 57 30 71 10 25 11 25 113 23 56 -1 110 -6 119 -11 12 -5 20 -3 25 7 11 20 164 76 223 83 24 2 53 10 65 17 11 8 53 20 93 28 82 17 125 48 179 128 18 26 37 50 43 54 5 3 10 13 10 22 0 8 9 27 20 43 18 26 19 28 2 43 -20 18 -50 23 -75 12 -10 -4 -23 -2 -31 4 -7 6 -16 8 -20 4 -8 -9 -115 -12 -120 -4 -2 3 -93 6 -203 5 -170 0 -209 -4 -276 -22 -149 -41 -203 -78 -454 -306 -112 -102 -201 -163 -288 -196 -49 -19 -80 -24 -166 -24 -102 -1 -109 0 -175 34 -118 61 -171 161 -162 307 10 155 120 299 292 382 125 60 235 93 311 92 10 0 25 5 32 10 6 6 21 8 32 4 10 -3 22 -1 25 4 4 5 18 6 34 2 19 -6 67 2 158 24 148 36 173 47 170 72 -2 14 -11 17 -37 15 -109 -9 -261 -3 -277 10 -9 8 -30 20 -47 27 -56 25 -174 102 -174 114 1 16 -6 15 -106 -15z"/>
 <path d="M6776 5151 c-4 -5 -2 -12 3 -15 5 -4 12 -2 15 3 4 5 2 12 -3 15 -5 4 -12 2 -15 -3z"/>
 <path d="M6706 5041 c-4 -5 -2 -12 3 -15 5 -4 12 -2 15 3 4 5 2 12 -3 15 -5 4 -12 2 -15 -3z"/>
 <path d="M6646 4881 c-4 -5 -2 -12 3 -15 5 -4 12 -2 15 3 4 5 2 12 -3 15 -5 4 -12 2 -15 -3z"/>
 </g>
<g id="layer3" fill="#3601ae" stroke="none">
 <path d="M5053 7215 c-3 -9 -34 -29 -68 -45 -34 -16 -65 -36 -68 -45 -4 -8 -12 -15 -20 -15 -15 0 -147 -126 -147 -140 0 -5 -14 -25 -31 -44 -17 -20 -28 -40 -24 -46 8 -12 -31 -79 -57 -98 -10 -7 -18 -18 -18 -23 0 -6 -16 -29 -35 -51 -22 -27 -36 -55 -41 -84 -3 -24 -12 -49 -20 -55 -8 -6 -14 -15 -14 -20 0 -5 -11 -27 -25 -49 -14 -22 -25 -47 -25 -55 0 -9 -9 -37 -21 -62 -24 -53 -26 -59 -45 -183 -21 -133 -30 -546 -15 -707 26 -270 75 -492 168 -758 39 -111 58 -141 79 -124 10 9 11 16 2 32 -8 16 -7 28 7 53 15 28 15 34 2 61 -10 19 -12 34 -6 45 12 22 18 189 7 211 -9 18 -13 42 -22 157 -3 36 -9 85 -12 110 -5 38 -12 110 -16 180 0 8 3 60 7 115 4 55 8 132 10 170 1 39 8 84 15 100 7 17 12 40 11 52 -1 11 3 24 8 28 6 3 11 28 11 54 0 26 3 51 7 55 7 6 27 84 47 176 2 8 6 22 9 30 3 8 13 38 22 66 8 28 24 68 35 90 11 21 20 46 20 55 0 9 6 22 14 28 8 7 17 31 21 54 4 23 15 56 25 74 11 18 15 35 10 38 -11 7 -2 41 15 55 7 6 11 19 8 29 -2 10 9 47 25 82 19 41 27 68 21 75 -6 7 -4 16 6 24 8 7 15 17 15 22 0 5 9 27 20 50 11 22 17 44 15 48 -3 4 1 10 9 13 7 3 16 20 20 39 3 18 22 55 40 83 19 27 32 53 29 57 -7 13 -23 9 -30 -7z"/>
 <path d="M7883 7192 c-39 -20 -89 -47 -112 -59 -24 -14 -58 -23 -83 -23 -24 0 -54 -7 -68 -15 -14 -8 -36 -19 -50 -25 -14 -6 -34 -14 -45 -19 -42 -18 -124 -39 -122 -31 1 4 -2 8 -8 8 -5 0 -9 -5 -7 -11 2 -6 -2 -6 -11 2 -11 9 -21 9 -43 0 -16 -7 -60 -15 -99 -18 -49 -4 -69 -10 -67 -19 1 -7 -10 -17 -25 -22 -16 -6 -36 -15 -45 -20 -10 -6 -32 -10 -49 -10 -53 0 -191 -66 -235 -112 -21 -23 -38 -46 -36 -51 4 -14 -18 -37 -37 -37 -9 -1 -34 -19 -56 -40 -22 -22 -46 -40 -53 -40 -25 0 -152 -137 -152 -163 0 -17 -7 -26 -21 -30 -12 -3 -18 -10 -14 -17 4 -6 -1 -17 -11 -24 -10 -8 -13 -15 -7 -19 6 -4 21 2 34 12 13 10 29 20 34 22 6 2 62 32 125 66 254 136 376 183 725 282 217 61 573 177 592 192 7 6 13 9 13 5 0 -4 15 1 33 11 17 9 35 17 40 18 4 0 7 3 7 8 0 4 0 10 0 13 0 4 -6 1 -14 -5 -10 -9 -16 -8 -26 3 -6 9 -9 20 -6 25 4 5 1 13 -4 16 -7 5 -5 12 7 21 17 13 17 14 -5 20 -17 5 -20 9 -11 15 17 10 20 39 4 45 -13 6 -15 21 -2 40 6 11 -1 25 -12 23 -3 0 -38 -17 -78 -37z"/>
 <path d="M8136 7091 c-4 -5 -2 -12 3 -15 5 -4 12 -2 15 3 4 5 2 12 -3 15 -5 4 -12 2 -15 -3z"/>
 <path d="M8106 7071 c-4 -5 -2 -12 3 -15 5 -4 12 -2 15 3 4 5 2 12 -3 15 -5 4 -12 2 -15 -3z"/>
 <path d="M8076 7051 c-4 -5 -2 -12 3 -15 5 -4 12 -2 15 3 4 5 2 12 -3 15 -5 4 -12 2 -15 -3z"/>
 <path d="M4486 6651 c-4 -5 -2 -12 3 -15 5 -4 12 -2 15 3 4 5 2 12 -3 15 -5 4 -12 2 -15 -3z"/>
 <path d="M9697 6443 c-3 -2 -17 -6 -32 -9 -15 -3 -44 -12 -64 -20 -20 -8 -51 -17 -69 -20 -18 -2 -49 -11 -70 -21 -20 -9 -40 -16 -44 -15 -3 1 -12 -5 -18 -13 -7 -8 -20 -15 -29 -15 -9 0 -27 -8 -41 -17 -13 -9 -33 -18 -44 -19 -12 -1 -34 -8 -51 -15 -16 -6 -39 -14 -49 -16 -11 -2 -32 -10 -47 -17 -15 -7 -71 -22 -125 -32 -94 -18 -104 -22 -214 -95 -128 -85 -325 -198 -404 -231 -28 -12 -58 -27 -66 -33 -8 -7 -20 -10 -27 -8 -15 5 -26 -14 -13 -22 5 -3 16 -3 22 1 7 5 34 9 60 10 25 1 59 5 75 10 15 4 35 9 43 10 83 11 118 17 135 21 21 5 154 28 213 37 18 2 38 9 45 14 7 5 32 12 57 16 42 5 57 8 120 21 14 3 43 8 65 11 22 3 63 12 90 20 28 8 68 17 90 20 22 3 56 8 75 11 19 3 58 7 85 9 45 3 90 10 90 14 0 7 81 8 89 0 7 -5 23 -11 36 -14 14 -2 40 -8 58 -12 41 -8 94 -61 133 -130 16 -28 38 -59 49 -69 11 -10 20 -28 20 -40 0 -11 7 -30 15 -41 8 -10 15 -29 15 -42 0 -13 5 -33 11 -44 12 -23 14 -36 26 -178 8 -109 8 -162 0 -205 -3 -16 -9 -45 -12 -64 -4 -19 -11 -45 -16 -58 -5 -14 -6 -29 -3 -35 7 -11 -20 -78 -51 -123 -59 -89 -150 -173 -192 -179 -8 -1 -18 -7 -21 -12 -4 -6 -18 -10 -32 -9 -14 0 -40 -5 -57 -12 -18 -7 -33 -9 -33 -6 0 3 -10 -2 -23 -10 -15 -9 -29 -12 -37 -7 -9 5 -20 4 -28 -3 -9 -7 -74 -11 -190 -12 -207 -1 -243 -7 -297 -49 -22 -17 -49 -36 -60 -42 -11 -6 -20 -17 -20 -25 0 -11 58 -21 258 -43 l257 -30 0 -27 c0 -83 -60 -320 -109 -430 -14 -30 -17 -49 -10 -71 17 -62 49 -73 49 -16 0 24 3 28 13 19 17 -14 27 -4 27 26 0 13 5 22 12 21 7 -2 14 7 16 19 3 22 4 22 28 -5 l24 -27 6 22 c3 13 11 20 16 17 5 -3 12 4 15 15 5 21 7 21 24 5 17 -15 19 -15 25 0 3 9 10 14 14 11 4 -2 15 4 25 15 10 11 22 17 26 14 5 -3 12 2 15 10 5 14 8 14 28 0 21 -13 26 -12 68 25 30 27 51 38 64 35 13 -4 34 9 69 43 28 26 49 51 47 55 -1 5 6 8 16 8 9 0 37 26 62 57 59 75 92 123 85 123 -4 0 3 13 14 29 12 16 21 34 21 40 0 6 4 11 9 11 30 0 128 285 136 395 2 33 7 74 9 90 8 47 19 177 17 210 0 17 -3 82 -5 145 -2 63 -14 171 -25 239 -12 68 -20 128 -18 135 2 6 -4 28 -14 48 -11 21 -19 45 -19 55 0 19 -23 90 -39 121 -25 49 -51 110 -51 120 0 6 -6 15 -13 19 -7 4 -28 33 -45 64 -18 31 -44 64 -57 73 -14 9 -23 21 -21 25 10 16 -40 49 -82 54 -25 3 -49 13 -56 23 -7 10 -22 19 -32 21 -32 6 -133 11 -137 6z"/>
 <path d="M6396 6391 c-4 -5 -2 -12 3 -15 5 -4 12 -2 15 3 4 5 2 12 -3 15 -5 4 -12 2 -15 -3z"/>
 <path d="M4625 4560 c-4 -6 -3 -16 3 -22 6 -6 12 -6 17 2 4 6 3 16 -3 22 -6 6 -12 6 -17 -2z"/>
 <path d="M9260 3921 c-6 -12 -6 -22 -1 -26 6 -3 15 3 21 14 6 12 6 22 1 26 -6 3 -15 -3 -21 -14z"/>
 <path d="M9143 3727 c-19 -24 -23 -36 -14 -41 5 -3 16 5 25 19 16 24 6 45 -11 22z"/>
 <path d="M9066 3631 c-10 -11 -13 -22 -8 -25 5 -3 17 3 26 13 10 11 13 22 8 25 -5 3 -17 -3 -26 -13z"/>
 <path d="M8895 3448 c-92 -81 -269 -201 -376 -257 -72 -37 -199 -81 -500 -175 -81 -25 -153 -53 -160 -62 -19 -23 -29 -271 -12 -286 34 -28 433 57 690 146 203 71 494 208 551 259 12 11 22 17 22 13 0 -5 7 -3 15 4 8 7 12 16 9 22 -3 5 -11 4 -19 -2 -21 -17 -30 -7 -64 74 -31 74 -61 216 -61 287 0 21 -3 40 -7 42 -5 3 -44 -27 -88 -65z"/>
 <path d="M9191 3156 c-7 -8 -8 -17 -3 -20 6 -3 15 1 21 8 7 8 8 17 3 20 -6 3 -15 -1 -21 -8z"/>
 <path d="M6966 3011 c-4 -5 -2 -12 3 -15 5 -4 12 -2 15 3 4 5 2 12 -3 15 -5 4 -12 2 -15 -3z"/>
 <path d="M6930 2950 c-111 -67 -170 -116 -198 -164 -22 -37 -20 -42 19 -50 13 -3 33 -7 44 -10 159 -42 373 -77 381 -64 9 14 5 239 -5 274 -8 32 -36 49 -95 58 -21 4 -41 8 -45 10 -3 2 -49 -23 -101 -54z"/>
 <path d="M6676 2771 c-4 -5 -2 -12 3 -15 5 -4 12 -2 15 3 4 5 2 12 -3 15 -5 4 -12 2 -15 -3z"/>
 </g>
<g id="layer4" fill="#530fe6" stroke="none">
 <path d="M5707 7053 c-16 -3 -54 -18 -85 -34 -31 -16 -65 -29 -76 -29 -10 0 -41 -16 -67 -35 -27 -19 -53 -35 -57 -35 -4 0 -26 -18 -47 -40 -21 -22 -35 -40 -31 -40 5 0 -2 -9 -15 -20 -13 -10 -20 -19 -15 -20 5 0 -12 -16 -38 -35 -25 -20 -46 -42 -46 -50 0 -8 -5 -15 -10 -15 -6 0 -15 -10 -21 -22 -5 -13 -23 -45 -39 -73 -16 -27 -33 -57 -36 -65 -4 -8 -18 -28 -31 -43 -13 -16 -23 -36 -23 -46 0 -10 -9 -26 -20 -36 -11 -10 -18 -20 -15 -23 2 -3 -1 -14 -7 -26 -6 -11 -13 -34 -15 -51 -2 -16 -8 -34 -13 -39 -6 -6 -10 -24 -10 -40 0 -17 -7 -40 -15 -50 -8 -11 -15 -34 -15 -51 0 -17 -6 -40 -14 -51 -8 -11 -20 -54 -26 -95 -6 -41 -13 -81 -14 -89 -1 -8 -8 -31 -14 -50 -9 -27 -9 -49 2 -100 8 -39 10 -75 5 -93 -8 -29 -4 -52 14 -75 11 -14 17 -37 20 -84 1 -14 17 -47 35 -72 17 -26 32 -55 32 -66 0 -20 38 -53 52 -44 4 3 8 0 8 -6 0 -17 50 -31 87 -24 48 9 131 88 191 182 62 98 192 336 197 361 6 31 78 151 91 151 15 0 34 23 39 48 2 12 19 44 39 73 27 40 33 56 25 70 -7 15 -4 22 16 35 14 9 22 20 19 25 -3 5 -1 9 4 9 12 0 108 121 104 132 -1 5 21 39 50 76 29 36 53 69 53 73 0 4 39 46 87 94 48 48 85 91 83 95 -3 5 5 21 18 37 13 15 22 33 20 39 -2 6 5 19 16 28 19 17 19 20 4 42 -12 18 -13 27 -4 38 9 10 8 16 -4 26 -8 7 -13 16 -10 20 8 12 -28 38 -75 55 -25 9 -52 24 -60 35 -13 18 -27 20 -125 19 -61 0 -119 -1 -130 -1 -11 -1 -29 1 -40 4 -11 2 -33 3 -48 1z"/>
 <path d="M9127 5664 c-1 -1 -24 -4 -52 -8 -27 -3 -61 -8 -75 -10 -14 -2 -45 -7 -69 -10 -47 -6 -110 -24 -126 -36 -5 -5 -27 -11 -48 -15 -20 -4 -40 -11 -43 -16 -3 -5 -10 -6 -16 -3 -5 4 -20 2 -31 -4 -38 -18 -61 -24 -101 -28 -22 -3 -51 -7 -65 -9 -14 -3 -60 -7 -102 -10 -80 -4 -134 -19 -125 -34 13 -20 -245 -81 -289 -69 -30 8 -81 2 -100 -12 -5 -4 -17 -8 -25 -8 -51 -3 -102 -13 -150 -30 -30 -11 -67 -23 -81 -26 -51 -11 -164 -83 -235 -149 -57 -53 -83 -86 -111 -145 -36 -72 -38 -81 -38 -171 0 -85 3 -103 28 -153 33 -67 90 -121 166 -157 50 -23 68 -26 161 -25 85 0 116 5 165 24 87 33 176 94 288 196 254 232 321 275 474 310 84 19 261 24 454 13 59 -4 113 -3 120 2 8 4 19 3 26 -3 7 -6 21 -7 30 -3 21 10 54 7 69 -6 12 -9 39 13 29 23 -3 3 1 11 10 18 8 7 15 9 15 6 0 -4 9 -2 21 4 20 11 61 22 87 23 34 1 183 172 166 190 -2 2 1 15 8 29 10 19 15 100 9 150 -2 17 -83 108 -92 102 -6 -3 -19 2 -30 12 -10 9 -19 13 -19 9 0 -4 -8 -1 -18 8 -10 10 -21 14 -25 11 -3 -3 -12 -2 -19 2 -10 7 -234 14 -241 8z"/>
 </g>
<g id="layer5" fill="#670075" stroke="none">
 <path d="M6431 11616 c-7 -8 -8 -17 -3 -20 6 -3 15 1 21 8 7 8 8 17 3 20 -6 3 -15 -1 -21 -8z"/>
 <path d="M6295 11390 c-3 -5 0 -13 8 -16 23 -8 82 0 82 11 0 14 -82 19 -90 5z"/>
 <path d="M6077 11376 c-83 -31 -127 -101 -127 -206 0 -79 23 -133 73 -177 63 -55 76 -57 622 -57 l500 -1 3 109 c2 64 -1 113 -7 119 -16 16 -224 74 -346 97 -60 11 -182 32 -270 46 -88 14 -191 37 -230 51 -85 31 -166 38 -218 19z"/>
 <path d="M7855 11137 c-3 -7 -4 -56 -3 -108 l3 -94 140 0 c134 0 140 1 137 20 -6 33 -92 112 -161 149 -86 44 -110 51 -116 33z"/>
 <path d="M6265 10791 c-189 -7 -210 -13 -274 -87 -39 -43 -44 -65 -40 -161 4 -71 7 -82 38 -120 56 -70 174 -110 204 -70 16 23 75 36 160 37 65 0 113 13 103 28 -2 4 55 7 128 6 115 -1 136 -4 166 -23 19 -11 43 -21 53 -21 10 0 29 -11 41 -25 24 -25 25 -26 162 -23 l139 3 0 230 0 230 -355 1 c-195 0 -431 -2 -525 -5z"/>
 <path d="M7854 10787 c-2 -7 -3 -111 -2 -232 l3 -220 355 0 c385 1 482 5 478 20 -2 6 -14 10 -26 10 -13 1 -28 8 -33 18 -8 13 -15 14 -35 7 -33 -13 -34 -13 -34 3 0 8 -14 33 -31 57 -25 34 -35 41 -55 37 -18 -3 -24 0 -22 11 2 8 -6 19 -17 26 -11 6 -23 16 -27 22 -4 6 -18 9 -32 7 -17 -4 -27 1 -35 16 -7 12 -18 21 -25 21 -8 0 -26 16 -40 35 -15 20 -32 33 -37 30 -5 -4 -23 17 -41 45 -27 43 -35 50 -55 45 -16 -4 -23 -1 -23 9 0 7 9 16 21 19 12 3 18 10 14 16 -10 17 -294 15 -301 -2z"/>
 <path d="M8914 10376 c-10 -8 -22 -14 -26 -15 -5 0 -8 -3 -8 -6 0 -4 6 -6 13 -4 1 0 10 2 21 4 24 5 41 21 29 28 -6 4 -18 0 -29 -7z"/>
 <path d="M7854 10186 c-3 -8 -4 -104 -2 -214 3 -197 3 -201 28 -227 17 -18 34 -26 55 -25 75 4 84 1 112 -41 20 -31 32 -40 52 -39 49 4 58 0 70 -26 16 -35 8 -41 -13 -9 -14 21 -24 25 -65 25 -55 0 -64 -6 -51 -31 9 -15 7 -18 -15 -16 -26 2 -40 -14 -15 -19 41 -8 63 -14 68 -19 3 -2 11 0 17 5 9 8 14 6 19 -5 3 -9 11 -13 16 -10 6 4 17 2 24 -4 7 -6 21 -12 32 -14 10 -2 26 -6 34 -9 8 -3 58 -20 110 -38 102 -35 250 -106 315 -150 22 -15 60 -37 85 -50 25 -12 60 -36 78 -52 33 -28 52 -29 52 -2 0 8 7 14 15 14 9 0 18 7 21 15 4 8 17 15 29 15 13 0 27 5 30 10 3 6 20 10 36 10 17 0 32 6 35 15 4 8 17 15 30 15 14 0 27 7 30 15 4 8 19 15 34 15 33 0 47 15 31 34 -8 9 1 18 35 34 34 17 44 27 40 39 -4 10 2 26 16 40 l22 23 -21 22 -21 21 25 38 c20 31 23 42 14 53 -8 9 -8 16 -2 20 6 4 8 13 4 22 -3 8 2 21 12 28 15 11 15 13 1 25 -8 7 -13 18 -10 25 3 7 -2 19 -11 26 -14 11 -14 14 2 25 15 12 15 13 -4 26 -20 12 -20 14 -5 25 15 11 13 14 -15 30 -35 20 -48 51 -32 71 17 20 -80 107 -162 146 -69 32 -88 56 -46 59 39 2 42 3 45 13 1 6 -209 11 -588 13 -505 2 -591 1 -596 -12z"/>
 <path d="M7065 10180 c-10 -16 3 -44 35 -75 38 -36 52 -25 48 36 -3 43 -4 44 -40 47 -20 2 -39 -2 -43 -8z"/>
 <path d="M9146 10082 c-3 -5 3 -17 13 -26 11 -10 22 -13 25 -8 3 5 -3 17 -13 26 -11 10 -22 13 -25 8z"/>
 <path d="M9206 10012 c-3 -5 8 -21 23 -36 16 -15 31 -23 35 -18 3 5 -8 21 -23 36 -16 15 -31 23 -35 18z"/>
 <path d="M9266 9942 c-3 -6 1 -15 8 -21 8 -7 17 -8 20 -3 3 6 -1 15 -8 21 -8 7 -17 8 -20 3z"/>
 <path d="M9296 9901 c-4 -5 -2 -12 3 -15 5 -4 12 -2 15 3 4 5 2 12 -3 15 -5 4 -12 2 -15 -3z"/>
 <path d="M9317 9873 c-4 -6 0 -18 7 -28 8 -11 16 -14 19 -8 4 6 0 18 -7 28 -8 11 -16 14 -19 8z"/>
 <path d="M9357 9803 c-4 -6 0 -18 7 -28 8 -11 16 -14 19 -8 4 6 0 18 -7 28 -8 11 -16 14 -19 8z"/>
 <path d="M5606 9741 c-4 -5 -2 -12 3 -15 5 -4 12 -2 15 3 4 5 2 12 -3 15 -5 4 -12 2 -15 -3z"/>
 <path d="M7856 9741 c-4 -5 -2 -12 3 -15 5 -4 12 -2 15 3 4 5 2 12 -3 15 -5 4 -12 2 -15 -3z"/>
 <path d="M5586 9671 c-4 -5 -2 -12 3 -15 5 -4 12 -2 15 3 4 5 2 12 -3 15 -5 4 -12 2 -15 -3z"/>
 <path d="M7854 9666 c-8 -21 3 -49 16 -41 5 3 10 15 10 25 0 25 -18 36 -26 16z"/>
 <path d="M9416 9661 c-4 -5 -2 -12 3 -15 5 -4 12 -2 15 3 4 5 2 12 -3 15 -5 4 -12 2 -15 -3z"/>
 <path d="M5566 9621 c-4 -5 -2 -12 3 -15 5 -4 12 -2 15 3 4 5 2 12 -3 15 -5 4 -12 2 -15 -3z"/>
 <path d="M7876 9601 c-4 -5 -2 -12 3 -15 5 -4 12 -2 15 3 4 5 2 12 -3 15 -5 4 -12 2 -15 -3z"/>
 <path d="M9436 9601 c-4 -5 -2 -12 3 -15 5 -4 12 -2 15 3 4 5 2 12 -3 15 -5 4 -12 2 -15 -3z"/>
 <path d="M5554 9577 c-3 -9 -3 -20 0 -26 4 -5 2 -12 -3 -15 -15 -10 -6 -41 14 -44 28 -6 36 11 24 49 -15 44 -27 57 -35 36z"/>
 <path d="M9456 9531 c-4 -5 -2 -12 3 -15 5 -4 12 -2 15 3 4 5 2 12 -3 15 -5 4 -12 2 -15 -3z"/>
 <path d="M5537 9483 c-10 -18 -47 -403 -40 -415 2 -5 18 -8 34 -8 16 0 47 -9 69 -20 22 -11 51 -20 65 -20 14 0 51 -13 83 -29 62 -31 121 -50 138 -44 6 2 41 37 78 78 l66 73 -57 31 c-31 17 -69 31 -84 31 -42 0 -101 31 -88 46 7 9 -16 28 -90 74 -55 34 -100 65 -99 68 1 8 -62 142 -67 142 -2 0 -6 -3 -8 -7z"/>
 <path d="M8876 9191 c-4 -5 -2 -12 3 -15 5 -4 12 -2 15 3 4 5 2 12 -3 15 -5 4 -12 2 -15 -3z"/>
 <path d="M6085 9158 c-32 -17 -55 -40 -49 -49 5 -8 67 29 73 44 5 14 -3 16 -24 5z"/>
 <path d="M8926 9151 c-4 -5 -2 -12 3 -15 5 -4 12 -2 15 3 4 5 2 12 -3 15 -5 4 -12 2 -15 -3z"/>
 <path d="M8966 9121 c-4 -5 -2 -12 3 -15 5 -4 12 -2 15 3 4 5 2 12 -3 15 -5 4 -12 2 -15 -3z"/>
 <path d="M9116 8991 c-4 -5 -2 -12 3 -15 5 -4 12 -2 15 3 4 5 2 12 -3 15 -5 4 -12 2 -15 -3z"/>
 <path d="M5851 8926 c-7 -8 -8 -17 -3 -20 6 -3 15 1 21 8 7 8 8 17 3 20 -6 3 -15 -1 -21 -8z"/>
 <path d="M9176 8921 c-4 -5 -2 -12 3 -15 5 -4 12 -2 15 3 4 5 2 12 -3 15 -5 4 -12 2 -15 -3z"/>
 <path d="M9356 8711 c-4 -5 -2 -12 3 -15 5 -4 12 -2 15 3 4 5 2 12 -3 15 -5 4 -12 2 -15 -3z"/>
 </g>
<g id="layer6" fill="#300095" stroke="none">
 <path d="M9696 7771 c-4 -5 -2 -12 3 -15 5 -4 12 -2 15 3 4 5 2 12 -3 15 -5 4 -12 2 -15 -3z"/>
 <path d="M8449 7410 c-13 -16 -29 -29 -36 -30 -6 0 -20 -13 -30 -30 -9 -16 -25 -30 -34 -30 -18 0 -49 -30 -49 -48 0 -6 -15 -15 -32 -20 -18 -5 -32 -14 -31 -20 2 -6 -11 -21 -27 -34 -17 -12 -30 -28 -30 -35 0 -15 -32 -17 -46 -3 -6 6 -22 -1 -44 -22 -19 -18 -42 -32 -50 -33 -8 0 -14 -8 -14 -17 1 -11 -5 -18 -17 -18 -10 0 -23 -10 -30 -22 -6 -13 -20 -30 -32 -39 -11 -9 -17 -21 -13 -28 5 -8 12 -9 19 -3 7 5 30 15 52 22 22 7 71 32 108 56 37 24 73 44 79 44 28 0 272 261 291 312 11 30 -9 28 -34 -2z"/>
 <path d="M4779 7338 c-23 -40 -52 -91 -65 -113 -59 -103 -162 -364 -220 -553 -39 -130 -83 -324 -80 -350 4 -22 18 -22 22 1 1 10 9 28 17 40 8 12 18 37 22 55 8 38 32 89 46 97 5 4 9 14 9 24 0 10 7 24 15 31 8 7 15 21 15 32 0 28 35 100 59 122 12 11 21 25 21 31 0 7 6 15 14 18 18 7 68 95 61 107 -4 6 8 27 25 48 17 20 40 48 51 60 10 13 19 30 19 38 0 8 4 14 10 14 13 0 41 56 32 64 -4 4 -7 15 -7 24 0 11 -7 16 -20 15 -15 -1 -21 4 -21 17 0 11 3 20 7 20 13 0 40 51 32 63 -16 25 -13 47 5 47 26 0 34 11 21 27 -6 7 -9 22 -6 33 3 11 -1 23 -8 28 -8 4 -14 11 -14 17 1 30 -25 7 -62 -57z"/>
 <path d="M4851 7166 c-9 -10 -9 -16 -1 -21 17 -10 37 12 24 25 -8 8 -15 6 -23 -4z"/>
 <path d="M9784 6908 c-3 -5 -12 -7 -19 -4 -7 2 -16 2 -20 -2 -4 -4 -11 -8 -16 -8 -5 -1 -11 -3 -14 -4 -3 -1 -9 -4 -15 -5 -5 -1 -12 -4 -15 -5 -3 -1 -9 -4 -15 -5 -5 -1 -11 -4 -12 -5 -2 -2 -18 -4 -36 -4 -19 -1 -38 -9 -43 -17 -5 -8 -9 -10 -9 -5 0 5 -9 1 -20 -9 -11 -10 -20 -14 -20 -9 0 5 -7 1 -15 -10 -7 -10 -18 -15 -24 -12 -5 4 -44 -46 -86 -110 -91 -137 -236 -291 -389 -415 -62 -49 -101 -88 -96 -93 11 -11 170 18 216 39 17 8 40 16 50 18 11 2 33 10 49 16 17 7 39 14 51 15 11 1 31 10 44 19 14 9 32 17 40 17 9 0 22 6 29 13 6 6 15 12 19 13 4 0 24 8 44 17 21 10 52 19 70 21 18 3 49 12 69 20 53 22 87 28 154 28 74 0 85 -2 105 -25 9 -11 34 -21 62 -24 39 -5 47 -10 61 -38 9 -18 24 -36 34 -39 22 -7 67 -84 154 -258 16 -32 39 -103 39 -121 0 -10 8 -34 19 -55 10 -20 16 -42 14 -48 -2 -7 6 -67 18 -135 11 -68 23 -176 25 -239 2 -63 5 -128 5 -145 2 -33 -9 -163 -17 -210 -2 -16 -6 -56 -9 -88 -5 -72 -61 -272 -87 -309 -11 -16 -16 -28 -12 -28 3 0 -5 -15 -19 -33 -14 -19 -38 -56 -53 -83 -36 -65 -124 -184 -137 -184 -5 0 -36 -25 -68 -55 -38 -35 -65 -52 -75 -48 -8 3 -26 -5 -40 -18 -14 -13 -29 -24 -32 -24 -4 0 -6 -4 -4 -10 2 -5 0 -7 -4 -3 -4 4 -13 3 -21 -3 -10 -9 -18 -8 -33 6 -18 16 -20 16 -26 1 -3 -9 -10 -14 -14 -11 -4 2 -15 -4 -25 -15 -10 -11 -22 -17 -26 -14 -5 3 -12 -2 -15 -11 -6 -15 -8 -15 -24 0 -17 15 -19 15 -28 -2 -6 -10 -14 -17 -19 -15 -4 1 -9 -6 -11 -17 -3 -19 -5 -19 -27 7 l-24 27 -9 -25 c-5 -14 -13 -23 -18 -20 -5 3 -11 -6 -14 -20 -3 -14 -12 -25 -20 -25 -8 0 -18 -13 -21 -30 -5 -22 -7 -24 -8 -8 -2 50 -23 28 -79 -84 -87 -174 -127 -230 -279 -390 -51 -53 -89 -101 -86 -106 3 -5 18 3 33 18 l27 26 7 -68 c10 -102 32 -185 68 -260 30 -64 34 -75 37 -97 0 -5 13 1 27 15 14 13 28 23 30 21 9 -5 64 29 64 40 0 6 3 9 6 5 7 -7 84 44 220 143 116 86 379 342 503 490 327 389 540 826 655 1340 54 244 77 485 50 539 -9 18 -13 42 -10 56 3 13 2 26 -4 30 -5 3 -7 12 -3 20 3 8 2 23 -3 33 -4 9 -8 19 -9 22 -1 3 -7 18 -13 33 -7 16 -12 47 -12 70 -1 23 -7 60 -15 82 -8 22 -15 52 -15 66 0 15 -7 32 -15 39 -9 8 -15 29 -15 56 0 23 -4 46 -10 49 -5 3 -10 19 -10 35 0 16 -4 31 -9 34 -5 3 -12 26 -16 51 -3 26 -12 49 -20 51 -7 3 -16 23 -20 44 -4 21 -13 44 -21 51 -8 6 -14 17 -14 23 0 21 -59 136 -70 136 -6 0 -16 12 -23 28 -19 44 -161 179 -196 187 -17 4 -31 11 -31 16 0 9 -39 29 -65 34 -5 1 -12 3 -15 5 -14 8 -211 6 -216 -2z"/>
 <path d="M9490 6841 c-6 -12 -6 -22 -1 -26 6 -3 15 3 21 14 6 12 6 22 1 26 -6 3 -15 -3 -21 -14z"/>
 <path d="M4396 6221 c-4 -5 -2 -12 3 -15 5 -4 12 -2 15 3 4 5 2 12 -3 15 -5 4 -12 2 -15 -3z"/>
 <path d="M8846 6151 c-4 -5 -2 -12 3 -15 5 -4 12 -2 15 3 4 5 2 12 -3 15 -5 4 -12 2 -15 -3z"/>
 <path d="M8816 6131 c-4 -5 -2 -12 3 -15 5 -4 12 -2 15 3 4 5 2 12 -3 15 -5 4 -12 2 -15 -3z"/>
 <path d="M4376 6031 c-4 -5 -2 -12 3 -15 5 -4 12 -2 15 3 4 5 2 12 -3 15 -5 4 -12 2 -15 -3z"/>
 <path d="M9369 4176 c-1 -3 -2 -9 -3 -13 -1 -5 -5 -13 -9 -20 -4 -6 -3 -14 3 -18 5 -3 11 -4 11 -1 1 3 2 9 3 14 1 4 5 12 9 19 4 6 3 14 -3 18 -5 3 -11 4 -11 1z"/>
 <path d="M8841 3406 c-7 -8 -8 -17 -3 -20 6 -3 15 1 21 8 7 8 8 17 3 20 -6 3 -15 -1 -21 -8z"/>
 <path d="M8796 3371 c-4 -5 -2 -12 3 -15 5 -4 12 -2 15 3 4 5 2 12 -3 15 -5 4 -12 2 -15 -3z"/>
 <path d="M8756 3341 c-4 -5 -2 -12 3 -15 5 -4 12 -2 15 3 4 5 2 12 -3 15 -5 4 -12 2 -15 -3z"/>
 <path d="M8726 3321 c-4 -5 -2 -12 3 -15 5 -4 12 -2 15 3 4 5 2 12 -3 15 -5 4 -12 2 -15 -3z"/>
 <path d="M8696 3301 c-4 -5 -2 -12 3 -15 5 -4 12 -2 15 3 4 5 2 12 -3 15 -5 4 -12 2 -15 -3z"/>
 <path d="M8666 3281 c-4 -5 -2 -12 3 -15 5 -4 12 -2 15 3 4 5 2 12 -3 15 -5 4 -12 2 -15 -3z"/>
 <path d="M8636 3261 c-4 -5 -2 -12 3 -15 5 -4 12 -2 15 3 4 5 2 12 -3 15 -5 4 -12 2 -15 -3z"/>
 <path d="M8536 3201 c-4 -5 -2 -12 3 -15 5 -4 12 -2 15 3 4 5 2 12 -3 15 -5 4 -12 2 -15 -3z"/>
 <path d="M8465 3166 c-11 -8 -14 -16 -8 -19 6 -4 18 0 28 7 11 8 14 16 8 19 -6 4 -18 0 -28 -7z"/>
 <path d="M8406 3141 c-4 -5 -2 -12 3 -15 5 -4 12 -2 15 3 4 5 2 12 -3 15 -5 4 -12 2 -15 -3z"/>
 <path d="M8987 3034 c-38 -20 -24 -38 14 -19 16 9 27 20 24 25 -7 12 -4 13 -38 -6z"/>
 <path d="M7845 2940 c-4 -6 -3 -16 3 -22 6 -6 12 -6 17 2 4 6 3 16 -3 22 -6 6 -12 6 -17 -2z"/>
 <path d="M8806 2941 c-4 -5 -2 -12 3 -15 5 -4 12 -2 15 3 4 5 2 12 -3 15 -5 4 -12 2 -15 -3z"/>
 <path d="M8666 2881 c-4 -5 -2 -12 3 -15 5 -4 12 -2 15 3 4 5 2 12 -3 15 -5 4 -12 2 -15 -3z"/>
 <path d="M8306 2761 c-4 -5 -2 -12 3 -15 5 -4 12 -2 15 3 4 5 2 12 -3 15 -5 4 -12 2 -15 -3z"/>
 <path d="M8186 2731 c-4 -5 -2 -12 3 -15 5 -4 12 -2 15 3 4 5 2 12 -3 15 -5 4 -12 2 -15 -3z"/>
 </g>
<g id="layer7" fill="#3d00cb" stroke="none">
 <path d="M8236 8401 c-4 -5 -2 -12 3 -15 5 -4 12 -2 15 3 4 5 2 12 -3 15 -5 4 -12 2 -15 -3z"/>
 <path d="M8326 8311 c-4 -5 -2 -12 3 -15 5 -4 12 -2 15 3 4 5 2 12 -3 15 -5 4 -12 2 -15 -3z"/>
 <path d="M8456 8111 c-4 -5 -2 -12 3 -15 5 -4 12 -2 15 3 4 5 2 12 -3 15 -5 4 -12 2 -15 -3z"/>
 <path d="M8446 7381 c-4 -5 -2 -12 3 -15 5 -4 12 -2 15 3 4 5 2 12 -3 15 -5 4 -12 2 -15 -3z"/>
 <path d="M8426 7351 c-4 -5 -2 -12 3 -15 5 -4 12 -2 15 3 4 5 2 12 -3 15 -5 4 -12 2 -15 -3z"/>
 <path d="M6590 7055 c-13 -14 -20 -25 -16 -25 18 0 -17 -29 -37 -32 -12 -2 -20 -6 -17 -9 8 -10 -32 -50 -59 -61 -18 -6 -21 -12 -13 -20 17 -17 -24 -58 -58 -58 -31 0 -99 -63 -80 -75 8 -5 7 -12 -4 -23 -17 -19 -18 -30 -5 -54 6 -11 5 -19 -1 -23 -8 -5 -8 -11 0 -20 8 -10 8 -15 0 -20 -8 -5 -8 -10 0 -20 8 -9 8 -15 0 -20 -5 -3 -8 -16 -4 -29 3 -14 -1 -27 -10 -35 -18 -15 -12 -33 8 -25 8 3 17 0 21 -5 4 -8 15 -5 31 8 23 18 95 23 111 7 11 -11 32 15 26 32 -5 13 -3 15 7 5 19 -17 63 13 55 38 -4 11 -2 19 4 19 22 0 26 2 43 17 10 9 15 19 13 24 -3 4 -1 10 4 13 5 4 8 18 6 34 -2 17 4 35 17 49 11 12 17 26 14 31 -3 5 3 20 13 33 10 14 17 36 16 51 -2 17 3 29 12 32 12 5 13 9 4 20 -6 7 -9 20 -6 28 3 8 -3 23 -15 33 -16 14 -18 21 -8 33 10 11 9 17 -5 27 -12 8 -14 15 -7 20 5 3 8 11 5 16 -11 17 -41 9 -65 -16z"/>
 <path d="M5250 7030 c-6 -11 -30 -32 -53 -46 -23 -14 -56 -41 -74 -60 -18 -19 -35 -34 -38 -34 -10 0 -65 -57 -65 -67 0 -5 -13 -19 -30 -31 -16 -13 -30 -29 -30 -37 0 -19 -50 -76 -61 -69 -5 3 -13 -5 -18 -18 -5 -13 -18 -31 -30 -42 -11 -10 -23 -34 -27 -52 -3 -19 -10 -37 -15 -40 -5 -3 -9 -13 -9 -23 0 -10 -7 -24 -15 -31 -8 -7 -15 -20 -15 -29 0 -9 -9 -34 -20 -55 -11 -22 -27 -62 -35 -90 -9 -28 -19 -58 -22 -66 -3 -8 -7 -22 -9 -30 -20 -92 -40 -170 -47 -176 -4 -4 -7 -29 -7 -55 0 -26 -5 -51 -11 -54 -5 -4 -9 -17 -8 -28 1 -12 -4 -35 -11 -52 -7 -16 -14 -61 -15 -100 -2 -38 -6 -115 -10 -170 -4 -55 -7 -107 -7 -115 4 -70 11 -142 16 -180 3 -25 9 -74 12 -110 9 -115 12 -130 25 -163 18 -47 29 -59 44 -47 8 7 15 3 24 -16 6 -15 15 -24 18 -20 3 3 13 -4 21 -16 14 -20 16 -20 28 -3 12 16 14 14 29 -21 11 -27 18 -35 27 -26 8 8 7 24 -4 59 -17 58 -17 361 1 493 6 47 13 99 15 117 2 18 7 37 11 43 6 10 22 79 39 165 10 49 20 82 33 109 9 16 17 38 18 50 2 12 9 54 15 95 6 41 18 84 26 95 8 11 14 34 14 51 0 17 7 40 15 51 8 10 15 31 15 47 0 15 5 36 10 47 6 11 14 28 19 39 6 12 6 22 -1 29 -7 7 -4 19 11 40 11 17 23 47 26 67 2 20 10 44 17 52 6 8 11 29 10 47 -2 24 5 40 24 59 24 24 24 32 2 28 -17 -2 -7 27 16 48 14 14 22 30 19 41 -3 12 4 24 20 34 25 17 51 62 42 76 -3 4 2 13 10 20 8 7 12 16 10 21 -3 4 4 13 15 19 11 6 18 15 15 19 -2 5 2 14 10 21 8 7 13 16 10 20 -3 5 -1 11 5 15 6 4 8 11 4 16 -3 5 -1 16 6 24 9 11 7 16 -9 24 -28 16 -39 14 -51 -9z"/>
 <path d="M9554 6071 c-7 -7 -33 -12 -89 -15 -27 -2 -66 -6 -85 -9 -19 -3 -53 -8 -75 -11 -22 -3 -62 -12 -90 -20 -27 -8 -68 -17 -90 -20 -39 -5 -62 -10 -115 -21 -14 -3 -45 -8 -70 -12 -25 -3 -50 -10 -57 -15 -7 -5 -27 -12 -45 -14 -59 -9 -192 -32 -213 -37 -11 -3 -42 -8 -70 -12 -68 -9 -84 -12 -127 -23 -29 -8 -40 -7 -49 4 -12 14 -33 9 -24 -6 3 -5 -4 -7 -16 -5 -11 2 -28 0 -37 -5 -26 -14 -336 -125 -434 -154 -103 -32 -123 -49 -88 -77 14 -10 42 -27 63 -36 20 -9 37 -20 37 -25 0 -8 77 -48 94 -48 5 0 17 -7 27 -15 19 -18 207 -29 245 -14 12 4 68 10 125 13 57 3 116 8 130 11 14 2 43 6 65 9 40 4 63 10 101 28 11 6 26 8 31 4 6 -3 13 -2 16 3 3 5 23 12 43 16 21 4 43 10 48 15 15 11 77 30 118 35 70 9 102 14 127 20 41 10 311 12 317 2 3 -4 11 -6 18 -3 8 3 19 -2 25 -9 7 -8 16 -13 20 -10 4 2 15 -4 25 -15 9 -10 22 -17 29 -14 17 6 59 -54 63 -90 8 -69 3 -122 -15 -153 -7 -13 -10 -23 -7 -23 3 0 -2 -14 -11 -32 -25 -48 -111 -126 -137 -124 -12 1 -39 -6 -59 -16 -21 -10 -38 -15 -38 -11 0 3 -11 -4 -25 -17 -13 -12 -23 -26 -20 -30 2 -3 -5 -19 -16 -36 -11 -16 -27 -44 -35 -62 -17 -33 -114 -147 -145 -170 -18 -12 -17 -14 1 -47 11 -19 17 -35 14 -35 -4 0 -1 -7 6 -15 9 -11 23 -13 49 -9 20 4 113 7 208 8 111 1 176 6 185 13 8 7 19 8 28 3 8 -5 22 -2 37 7 13 8 23 12 23 9 0 -4 9 -2 21 5 11 6 37 11 58 12 41 2 164 72 196 112 11 13 33 39 49 57 34 40 89 156 82 175 -3 7 -1 24 3 37 5 12 12 38 16 57 3 19 9 48 12 64 8 43 8 96 0 205 -12 142 -14 155 -26 178 -6 11 -11 31 -11 44 0 13 -7 32 -15 42 -8 11 -15 30 -15 43 0 13 -10 34 -23 46 -13 12 -36 44 -51 70 -15 27 -46 68 -69 91 -40 41 -50 46 -141 63 -11 2 -24 8 -31 13 -11 9 -82 9 -91 1z"/>
 <path d="M8435 5906 c-11 -8 -14 -16 -8 -19 6 -4 18 0 28 7 11 8 14 16 8 19 -6 4 -18 0 -28 -7z"/>
 <path d="M7076 5411 c-4 -5 -2 -12 3 -15 5 -4 12 -2 15 3 4 5 2 12 -3 15 -5 4 -12 2 -15 -3z"/>
 <path d="M6936 5321 c-4 -5 -2 -12 3 -15 5 -4 12 -2 15 3 4 5 2 12 -3 15 -5 4 -12 2 -15 -3z"/>
 <path d="M6636 4661 c-4 -5 -2 -12 3 -15 5 -4 12 -2 15 3 4 5 2 12 -3 15 -5 4 -12 2 -15 -3z"/>
 <path d="M6696 4401 c-4 -5 -2 -12 3 -15 5 -4 12 -2 15 3 4 5 2 12 -3 15 -5 4 -12 2 -15 -3z"/>
 <path d="M8136 4291 c-4 -5 -2 -12 3 -15 5 -4 12 -2 15 3 4 5 2 12 -3 15 -5 4 -12 2 -15 -3z"/>
 <path d="M8106 4251 c-4 -5 -2 -12 3 -15 5 -4 12 -2 15 3 4 5 2 12 -3 15 -5 4 -12 2 -15 -3z"/>
 <path d="M9376 4201 c-4 -5 -2 -12 3 -15 5 -4 12 -2 15 3 4 5 2 12 -3 15 -5 4 -12 2 -15 -3z"/>
 <path d="M7956 4111 c-4 -5 -2 -12 3 -15 5 -4 12 -2 15 3 4 5 2 12 -3 15 -5 4 -12 2 -15 -3z"/>
 <path d="M9316 4041 c-4 -5 -2 -12 3 -15 5 -4 12 -2 15 3 4 5 2 12 -3 15 -5 4 -12 2 -15 -3z"/>
 <path d="M9206 3821 c-4 -5 -2 -12 3 -15 5 -4 12 -2 15 3 4 5 2 12 -3 15 -5 4 -12 2 -15 -3z"/>
 <path d="M9156 3751 c-4 -5 -2 -12 3 -15 5 -4 12 -2 15 3 4 5 2 12 -3 15 -5 4 -12 2 -15 -3z"/>
 <path d="M9126 3711 c-4 -5 -2 -12 3 -15 5 -4 12 -2 15 3 4 5 2 12 -3 15 -5 4 -12 2 -15 -3z"/>
 <path d="M7256 2591 c-4 -5 -2 -12 3 -15 5 -4 12 -2 15 3 4 5 2 12 -3 15 -5 4 -12 2 -15 -3z"/>
 </g>
<g id="layer8" fill="#70008a" stroke="none">
 <path d="M5956 10481 c-4 -5 -2 -12 3 -15 5 -4 12 -2 15 3 4 5 2 12 -3 15 -5 4 -12 2 -15 -3z"/>
 <path d="M6372 10439 c-13 -5 -21 -13 -18 -17 3 -5 -24 -12 -61 -15 -48 -5 -77 -14 -104 -33 -21 -15 -36 -30 -34 -35 9 -13 702 -12 710 1 10 16 -23 49 -59 59 -31 9 -31 9 -4 10 28 1 45 15 30 25 -16 9 -436 14 -460 5z"/>
 <path d="M5986 10432 c-3 -6 1 -15 8 -21 8 -7 17 -8 20 -3 3 6 -1 15 -8 21 -8 7 -17 8 -20 3z"/>
 <path d="M6026 10391 c-4 -5 -2 -12 3 -15 5 -4 12 -2 15 3 4 5 2 12 -3 15 -5 4 -12 2 -15 -3z"/>
 <path d="M5847 10088 c-120 -120 -187 -214 -233 -329 -13 -35 -26 -71 -28 -79 -2 -8 -6 -22 -9 -30 -4 -8 -11 -36 -16 -62 -6 -37 -5 -50 8 -64 15 -17 15 -17 -1 -5 -10 8 -18 12 -19 10 -11 -44 -7 -74 15 -117 16 -32 21 -53 15 -59 -6 -6 26 -31 90 -68 70 -42 97 -63 90 -71 -11 -14 0 -23 58 -53 23 -11 56 -21 72 -21 23 0 80 -24 110 -47 2 -1 -1 -9 -7 -16 -7 -8 -9 -17 -5 -20 3 -4 29 14 57 39 115 103 169 142 272 198 60 32 117 66 128 75 10 9 37 26 60 38 143 75 210 97 466 153 80 17 152 38 160 46 12 12 16 56 18 245 l3 229 -35 34 c-44 41 -45 54 -3 58 17 2 32 8 32 13 0 7 -206 11 -592 13 l-592 2 -114 -112z"/>
 <path d="M7856 9861 c-4 -5 -2 -12 4 -16 6 -4 8 -10 5 -15 -3 -5 -1 -11 4 -14 5 -4 12 -2 15 3 4 5 2 12 -4 16 -6 4 -8 10 -5 15 3 5 1 11 -4 14 -5 4 -12 2 -15 -3z"/>
 <path d="M7924 9847 c-8 -22 11 -46 26 -31 7 7 5 17 -4 30 -14 18 -15 18 -22 1z"/>
 <path d="M7857 9794 c-3 -3 -3 -47 0 -97 6 -107 11 -113 92 -123 72 -8 93 -13 161 -33 37 -12 57 -2 47 22 -3 8 -21 14 -42 15 -20 1 -40 4 -45 7 -21 13 -8 25 25 25 27 0 42 -7 59 -27 15 -17 28 -24 40 -20 16 6 16 9 0 39 -16 30 -16 32 -1 19 9 -7 24 -10 34 -7 15 6 15 9 -5 29 -17 16 -24 19 -34 9 -9 -9 -15 -9 -25 0 -8 6 -29 11 -49 10 -29 -1 -38 4 -60 38 -21 32 -33 40 -58 41 -94 2 -100 4 -112 27 -14 28 -19 33 -27 26z"/>
 <path d="M8196 9531 c-4 -5 -2 -12 3 -15 5 -4 12 -2 15 3 4 5 2 12 -3 15 -5 4 -12 2 -15 -3z"/>
 <path d="M8356 9481 c-4 -5 -2 -12 3 -15 5 -4 12 -2 15 3 4 5 2 12 -3 15 -5 4 -12 2 -15 -3z"/>
 <path d="M5526 9411 c-4 -5 -2 -12 3 -15 5 -4 12 -2 15 3 4 5 2 12 -3 15 -5 4 -12 2 -15 -3z"/>
 <path d="M9226 8861 c-4 -5 -2 -12 3 -15 5 -4 12 -2 15 3 4 5 2 12 -3 15 -5 4 -12 2 -15 -3z"/>
 <path d="M9286 8791 c-4 -5 -2 -12 3 -15 5 -4 12 -2 15 3 4 5 2 12 -3 15 -5 4 -12 2 -15 -3z"/>
 <path d="M7566 8591 c-4 -5 -2 -12 3 -15 5 -4 12 -2 15 3 4 5 2 12 -3 15 -5 4 -12 2 -15 -3z"/>
 <path d="M7766 8591 c-4 -5 -2 -12 3 -15 5 -4 12 -2 15 3 4 5 2 12 -3 15 -5 4 -12 2 -15 -3z"/>
 <path d="M7246 8561 c-4 -5 -2 -12 3 -15 5 -4 12 -2 15 3 4 5 2 12 -3 15 -5 4 -12 2 -15 -3z"/>
 <path d="M7996 8541 c-4 -5 -2 -12 3 -15 5 -4 12 -2 15 3 4 5 2 12 -3 15 -5 4 -12 2 -15 -3z"/>
 <path d="M9487 8493 c-4 -6 0 -18 7 -28 8 -11 16 -14 19 -8 4 6 0 18 -7 28 -8 11 -16 14 -19 8z"/>
 <path d="M8166 8451 c-4 -5 -2 -12 3 -15 5 -4 12 -2 15 3 4 5 2 12 -3 15 -5 4 -12 2 -15 -3z"/>
 <path d="M9586 8291 c-4 -5 -2 -12 3 -15 5 -4 12 -2 15 3 4 5 2 12 -3 15 -5 4 -12 2 -15 -3z"/>
 <path d="M8426 8171 c-4 -5 -2 -12 3 -15 5 -4 12 -2 15 3 4 5 2 12 -3 15 -5 4 -12 2 -15 -3z"/>
 <path d="M6796 5181 c-4 -5 -2 -12 3 -15 5 -4 12 -2 15 3 4 5 2 12 -3 15 -5 4 -12 2 -15 -3z"/>
 <path d="M6716 5061 c-4 -5 -2 -12 3 -15 5 -4 12 -2 15 3 4 5 2 12 -3 15 -5 4 -12 2 -15 -3z"/>
 <path d="M6686 4421 c-4 -5 -2 -12 3 -15 5 -4 12 -2 15 3 4 5 2 12 -3 15 -5 4 -12 2 -15 -3z"/>
 <path d="M8166 4331 c-4 -5 -2 -12 3 -15 5 -4 12 -2 15 3 4 5 2 12 -3 15 -5 4 -12 2 -15 -3z"/>
 </g>
<g id="layer9" fill="#500094" stroke="none">
 <path d="M5961 9046 c-13 -13 -18 -26 -13 -30 5 -3 19 5 31 18 13 13 18 26 13 30 -5 3 -19 -5 -31 -18z"/>
 <path d="M7455 8590 c-149 -9 -229 -27 -334 -76 -167 -77 -365 -288 -496 -528 -46 -86 -149 -372 -136 -380 4 -3 34 11 66 30 32 20 77 43 99 52 23 8 54 26 69 39 16 13 35 23 42 23 15 0 135 141 135 158 0 6 5 12 11 14 7 2 19 23 28 46 16 41 146 202 164 202 5 0 33 22 63 48 30 27 67 55 82 62 15 7 38 18 52 25 14 8 55 23 90 36 36 12 73 29 83 37 14 13 42 16 135 16 141 -1 243 -23 325 -70 56 -33 140 -112 132 -125 -3 -3 4 -14 15 -24 11 -10 20 -25 20 -33 0 -7 6 -26 14 -40 27 -51 36 -108 40 -252 2 -80 9 -159 14 -176 7 -21 7 -35 0 -42 -5 -5 -11 -18 -13 -28 -2 -11 -4 -20 -5 -21 -2 -2 -3 -11 -5 -20 -2 -20 -9 -40 -36 -100 -10 -24 -19 -49 -19 -56 0 -7 -22 -37 -50 -66 -27 -29 -50 -58 -50 -64 0 -6 -6 -18 -14 -26 -8 -9 -22 -29 -30 -46 -14 -26 -14 -31 1 -47 15 -16 14 -19 -8 -37 l-24 -20 25 -9 c30 -11 29 -20 -1 -36 -12 -6 -22 -15 -23 -21 -2 -16 54 -18 72 -2 10 8 26 17 37 19 11 2 19 11 19 21 -1 9 2 14 7 11 5 -3 20 6 33 20 16 18 34 26 56 26 26 0 42 10 79 48 25 27 56 54 69 61 13 7 27 23 32 37 7 16 17 24 34 24 17 0 29 8 38 28 9 18 21 27 38 27 18 1 24 6 22 17 -1 9 6 22 17 28 45 24 87 242 78 404 -7 123 -25 194 -80 311 -99 213 -324 400 -552 460 -74 19 -286 26 -460 15z"/>
 <path d="M5486 8311 c-4 -5 -2 -12 3 -15 5 -4 12 -2 15 3 4 5 2 12 -3 15 -5 4 -12 2 -15 -3z"/>
 <path d="M5145 8031 c-9 -18 -11 -32 -5 -36 5 -3 16 8 25 24 9 18 11 32 5 36 -5 3 -16 -8 -25 -24z"/>
 <path d="M5086 7921 c-4 -5 -2 -12 3 -15 5 -4 12 -2 15 3 4 5 2 12 -3 15 -5 4 -12 2 -15 -3z"/>
 <path d="M5355 7893 c-11 -3 -26 -10 -33 -16 -15 -12 -100 -45 -147 -56 -17 -4 -41 -14 -55 -21 -20 -11 -21 -14 -9 -24 24 -19 16 -33 -41 -73 -30 -21 -55 -45 -55 -53 0 -11 -11 -15 -37 -15 -32 0 -40 -5 -55 -32 -10 -18 -48 -86 -85 -150 -36 -65 -78 -139 -92 -165 -16 -27 -23 -49 -17 -52 5 -4 27 25 48 64 21 38 43 68 48 67 18 -6 17 -37 -1 -65 -23 -34 -25 -61 -6 -71 12 -7 9 -13 -16 -31 -20 -15 -28 -28 -23 -34 4 -6 7 -22 6 -36 -1 -14 2 -31 7 -37 6 -7 7 -13 3 -13 -4 0 -2 -6 4 -14 9 -11 8 -15 -5 -20 -13 -5 -14 -10 -6 -18 12 -12 45 5 83 43 10 10 31 20 46 21 17 2 32 12 42 30 9 16 30 33 47 38 17 6 48 27 70 48 21 21 61 50 87 66 27 15 46 30 43 34 -4 3 6 12 21 19 16 7 35 17 43 22 118 70 386 145 560 156 30 2 98 7 150 10 52 3 111 7 130 9 155 13 207 18 220 24 8 3 23 6 32 6 26 1 22 21 -4 23 -13 1 -234 24 -493 51 l-470 48 -2 109 c0 60 -5 110 -10 111 -4 1 -17 -1 -28 -3z"/>
 <path d="M8411 7336 c-7 -8 -8 -17 -3 -20 6 -3 15 1 21 8 7 8 8 17 3 20 -6 3 -15 -1 -21 -8z"/>
 <path d="M8321 7236 c-29 -30 -49 -56 -44 -59 5 -3 33 18 62 47 29 30 49 56 44 59 -5 3 -33 -18 -62 -47z"/>
 <path d="M4660 7121 c-6 -12 -6 -22 -1 -26 6 -3 15 3 21 14 6 12 6 22 1 26 -6 3 -15 -3 -21 -14z"/>
 <path d="M8166 7111 c-4 -5 -2 -12 3 -15 5 -4 12 -2 15 3 4 5 2 12 -3 15 -5 4 -12 2 -15 -3z"/>
 <path d="M4626 7041 c-4 -5 -2 -12 3 -15 5 -4 12 -2 15 3 4 5 2 12 -3 15 -5 4 -12 2 -15 -3z"/>
 <path d="M8056 7041 c-4 -5 -2 -12 3 -15 5 -4 12 -2 15 3 4 5 2 12 -3 15 -5 4 -12 2 -15 -3z"/>
 <path d="M4596 6971 c-4 -5 -2 -12 3 -15 5 -4 12 -2 15 3 4 5 2 12 -3 15 -5 4 -12 2 -15 -3z"/>
 <path d="M4566 6891 c-4 -5 -2 -12 3 -15 5 -4 12 -2 15 3 4 5 2 12 -3 15 -5 4 -12 2 -15 -3z"/>
 </g>
<g id="layer10" fill="#57005e" stroke="none">
 <path d="M7025 12132 c-50 -48 -181 -165 -293 -261 -111 -96 -202 -177 -202 -182 0 -4 35 -28 78 -55 42 -26 87 -56 99 -67 20 -18 38 -20 215 -21 106 0 201 2 211 6 15 7 17 25 16 190 -2 265 -12 471 -24 474 -5 2 -51 -36 -100 -84z"/>
 <path d="M7860 12164 c-6 -16 -9 -144 -8 -323 l3 -296 326 -3 c332 -2 404 3 404 28 0 8 -112 110 -250 228 -137 118 -296 254 -352 303 -57 49 -105 89 -108 89 -3 0 -10 -12 -15 -26z"/>
 <path d="M6486 11661 c-10 -11 -13 -22 -8 -25 5 -3 17 3 26 13 10 11 13 22 8 25 -5 3 -17 -3 -26 -13z"/>
 <path d="M6925 11393 c-67 -7 -64 -20 16 -57 127 -58 175 -72 193 -57 19 16 22 91 4 109 -12 12 -119 14 -213 5z"/>
 <path d="M7857 11393 c-12 -11 -7 -119 6 -135 6 -9 41 -28 76 -42 150 -60 316 -172 356 -240 l26 -44 177 -1 c97 0 228 3 290 8 133 10 173 30 219 108 23 40 28 59 28 118 0 59 -5 78 -28 118 -45 76 -87 97 -209 108 -122 10 -932 12 -941 2z"/>
 <path d="M8330 10791 c-30 -8 -34 -36 -5 -36 12 0 28 -13 40 -35 11 -19 29 -39 40 -44 11 -5 37 -31 58 -57 l38 -49 74 0 c70 0 75 -1 95 -30 15 -21 30 -30 49 -30 15 0 36 -9 46 -20 11 -12 31 -20 51 -20 23 0 37 -6 44 -20 6 -11 19 -20 30 -20 12 0 26 -13 36 -31 l16 -32 41 42 42 41 0 108 c0 96 -2 110 -23 139 -13 18 -43 45 -68 59 -40 23 -60 27 -182 35 -163 10 -387 10 -422 0z"/>
 <path d="M9166 8931 c-4 -5 -2 -12 3 -15 5 -4 12 -2 15 3 4 5 2 12 -3 15 -5 4 -12 2 -15 -3z"/>
 <path d="M9346 8721 c-4 -5 -2 -12 3 -15 5 -4 12 -2 15 3 4 5 2 12 -3 15 -5 4 -12 2 -15 -3z"/>
 <path d="M9436 8591 c-4 -5 -2 -12 3 -15 5 -4 12 -2 15 3 4 5 2 12 -3 15 -5 4 -12 2 -15 -3z"/>
 <path d="M9467 8533 c-4 -6 0 -18 7 -28 8 -11 16 -14 19 -8 4 6 0 18 -7 28 -8 11 -16 14 -19 8z"/>
 <path d="M9506 8451 c-4 -5 -2 -12 3 -15 5 -4 12 -2 15 3 4 5 2 12 -3 15 -5 4 -12 2 -15 -3z"/>
 <path d="M5446 8181 c-4 -5 -2 -12 3 -15 5 -4 12 -2 15 3 4 5 2 12 -3 15 -5 4 -12 2 -15 -3z"/>
 <path d="M5396 8031 c-4 -5 -2 -12 3 -15 5 -4 12 -2 15 3 4 5 2 12 -3 15 -5 4 -12 2 -15 -3z"/>
 <path d="M9686 7461 c-4 -5 -2 -12 3 -15 5 -4 12 -2 15 3 4 5 2 12 -3 15 -5 4 -12 2 -15 -3z"/>
 </g>
<g id="layer11" fill="#580070" stroke="none">
 <path d="M6457 11633 c-42 -36 -75 -69 -71 -74 7 -11 331 -12 338 0 3 4 -5 17 -17 28 -18 16 -118 81 -162 105 -5 3 -45 -24 -88 -59z"/>
 <path d="M6836 11561 c-4 -5 -2 -12 3 -15 5 -4 12 -2 15 3 4 5 2 12 -3 15 -5 4 -12 2 -15 -3z"/>
 <path d="M6260 11392 c-56 -5 -58 -19 -8 -42 60 -26 143 -45 339 -75 201 -32 314 -55 444 -94 55 -16 104 -26 108 -22 4 5 7 37 5 72 -3 59 -5 64 -24 61 -12 -2 -64 14 -115 35 -74 29 -89 38 -71 43 13 3 22 10 20 15 -3 9 -607 15 -698 7z"/>
 <path d="M7126 11391 c-4 -5 -2 -12 3 -15 5 -4 12 -2 15 3 4 5 2 12 -3 15 -5 4 -12 2 -15 -3z"/>
 <path d="M7857 11273 c-4 -3 -7 -35 -7 -69 l0 -63 83 -39 c88 -41 158 -96 180 -141 12 -25 14 -26 117 -28 58 0 109 1 113 4 8 5 -14 32 -85 104 -50 51 -204 147 -304 189 -34 14 -68 31 -76 38 -8 6 -18 9 -21 5z"/>
 <path d="M8130 10791 c-42 -12 -34 -74 9 -68 11 1 32 -16 52 -43 19 -25 39 -45 45 -46 5 0 34 -24 64 -52 30 -29 63 -52 75 -52 22 -1 58 -24 50 -32 -10 -10 27 -32 52 -33 21 0 32 -11 54 -53 16 -29 28 -58 26 -65 -3 -16 213 -22 291 -7 56 10 136 55 127 71 -3 4 -12 6 -20 3 -7 -3 -18 4 -25 15 -6 12 -19 21 -29 21 -10 0 -26 9 -36 20 -11 12 -31 20 -50 20 -19 0 -39 8 -50 20 -10 11 -29 20 -42 20 -15 0 -34 12 -50 30 -23 28 -29 30 -97 30 l-72 0 -38 50 c-21 28 -45 50 -53 50 -8 0 -25 25 -38 55 l-25 55 -97 -1 c-54 -1 -109 -4 -123 -8z m483 -428 c-7 -2 -19 -2 -25 0 -7 3 -2 5 12 5 14 0 19 -2 13 -5z"/>
 <path d="M8985 10191 c-24 -5 -30 -12 -30 -31 0 -21 12 -31 75 -62 89 -44 159 -103 142 -120 -8 -8 -8 -17 -1 -30 5 -10 7 -23 4 -28 -3 -6 5 -15 20 -22 17 -8 24 -17 20 -29 -3 -9 -1 -20 5 -24 6 -4 8 -15 5 -24 -3 -10 1 -24 10 -31 14 -11 13 -14 -2 -26 -17 -12 -17 -13 -1 -19 13 -5 16 -14 11 -38 -3 -18 -10 -37 -15 -44 -6 -7 -3 -15 8 -21 19 -11 10 -34 -25 -66 l-22 -20 28 -23 28 -23 -28 -23 c-21 -18 -24 -26 -15 -35 9 -9 1 -16 -35 -32 -48 -21 -56 -33 -34 -47 7 -5 -2 -10 -26 -13 -21 -3 -37 -9 -37 -15 0 -5 -14 -12 -32 -15 -19 -3 -32 -11 -31 -18 2 -7 -9 -12 -26 -12 -17 0 -33 -4 -36 -10 -3 -5 -17 -10 -31 -10 -14 0 -27 -7 -30 -15 -5 -12 -35 -28 -56 -30 -9 0 -11 -15 -3 -15 3 0 13 -7 23 -15 9 -9 55 -46 102 -82 47 -36 101 -80 121 -97 49 -42 284 -317 330 -386 31 -47 200 -371 205 -392 1 -5 3 -10 4 -13 1 -3 3 -9 4 -15 0 -5 4 -10 9 -10 4 0 10 0 13 0 4 0 2 6 -4 13 -6 6 -11 15 -11 20 -1 4 -1 8 -2 10 -10 35 -7 47 13 47 12 0 36 14 53 32 l32 31 -44 99 c-79 181 -110 321 -138 623 -22 243 -32 317 -61 433 -48 196 -121 339 -244 479 -86 98 -194 204 -207 202 -4 -1 -21 -4 -38 -8z"/>
 <path d="M5497 9073 c-3 -5 -8 -39 -11 -78 -23 -234 -77 -427 -181 -644 -35 -74 -61 -139 -58 -144 4 -6 11 -3 18 6 15 21 75 22 140 2 58 -17 67 -12 84 47 7 24 26 63 41 88 16 25 49 90 75 145 45 99 121 236 157 285 10 14 45 60 78 103 33 42 59 77 58 78 -2 0 -16 3 -33 5 -16 3 -63 20 -104 39 -40 19 -84 35 -97 35 -14 0 -42 9 -64 20 -39 20 -95 27 -103 13z"/>
 <path d="M5936 9021 c-4 -5 -2 -12 3 -15 5 -4 12 -2 15 3 4 5 2 12 -3 15 -5 4 -12 2 -15 -3z"/>
 <path d="M9707 8343 c-4 -6 0 -18 7 -28 8 -11 16 -14 19 -8 4 6 0 18 -7 28 -8 11 -16 14 -19 8z"/>
 <path d="M8316 8321 c-4 -5 -2 -12 3 -15 5 -4 12 -2 15 3 4 5 2 12 -3 15 -5 4 -12 2 -15 -3z"/>
 <path d="M8366 8261 c-4 -5 -2 -12 3 -15 5 -4 12 -2 15 3 4 5 2 12 -3 15 -5 4 -12 2 -15 -3z"/>
 <path d="M9626 8181 c-4 -5 -2 -12 3 -15 5 -4 12 -2 15 3 4 5 2 12 -3 15 -5 4 -12 2 -15 -3z"/>
 <path d="M5436 8171 c-4 -5 -2 -12 3 -15 5 -4 12 -2 15 3 4 5 2 12 -3 15 -5 4 -12 2 -15 -3z"/>
 <path d="M8436 8151 c-4 -5 -2 -12 3 -15 5 -4 12 -2 15 3 4 5 2 12 -3 15 -5 4 -12 2 -15 -3z"/>
 <path d="M5406 8061 c-4 -5 -2 -12 3 -15 5 -4 12 -2 15 3 4 5 2 12 -3 15 -5 4 -12 2 -15 -3z"/>
 <path d="M9696 7521 c-4 -5 -2 -12 3 -15 5 -4 12 -2 15 3 4 5 2 12 -3 15 -5 4 -12 2 -15 -3z"/>
 </g>
<g id="layer12" fill="#340077" stroke="none">
 <path d="M9386 8671 c-4 -5 -2 -12 3 -15 5 -4 12 -2 15 3 4 5 2 12 -3 15 -5 4 -12 2 -15 -3z"/>
 <path d="M8116 8481 c-4 -5 -2 -12 3 -15 5 -4 12 -2 15 3 4 5 2 12 -3 15 -5 4 -12 2 -15 -3z"/>
 <path d="M9666 8421 c-4 -5 -2 -12 3 -15 5 -4 12 -2 15 3 4 5 2 12 -3 15 -5 4 -12 2 -15 -3z"/>
 <path d="M5516 8361 c-4 -5 -2 -12 3 -15 5 -4 12 -2 15 3 4 5 2 12 -3 15 -5 4 -12 2 -15 -3z"/>
 <path d="M9556 8361 c-4 -5 -2 -12 3 -15 5 -4 12 -2 15 3 4 5 2 12 -3 15 -5 4 -12 2 -15 -3z"/>
 <path d="M9675 8346 c-12 -18 -27 -26 -53 -28 -27 -2 -36 -7 -33 -18 2 -8 4 -19 5 -25 1 -5 4 -15 8 -20 4 -6 16 -48 28 -93 46 -183 60 -276 66 -446 6 -157 4 -182 -20 -312 -40 -218 -82 -351 -166 -526 -26 -54 -34 -81 -28 -93 8 -13 15 -11 49 16 21 17 39 28 39 24 0 -4 6 -3 13 3 7 6 26 13 42 16 17 2 31 5 33 6 1 2 7 4 12 5 6 1 12 4 15 5 3 1 10 4 15 5 6 1 12 4 15 5 3 1 10 4 15 5 6 1 13 4 18 5 4 1 12 3 17 5 6 1 12 3 15 5 3 2 41 4 85 6 84 2 184 -18 197 -41 4 -7 24 -16 43 -19 20 -4 39 -14 42 -22 3 -8 18 -21 34 -30 16 -8 29 -21 29 -28 0 -7 16 -24 35 -37 19 -13 35 -29 35 -36 0 -6 15 -30 34 -52 19 -23 44 -65 54 -94 11 -28 27 -65 36 -82 9 -16 16 -37 16 -46 0 -9 7 -22 15 -29 8 -7 17 -28 20 -49 3 -20 10 -44 16 -53 5 -10 9 -27 9 -37 0 -11 5 -23 10 -26 6 -3 10 -29 10 -56 0 -35 4 -51 15 -55 9 -4 15 -19 15 -36 0 -16 5 -38 10 -49 6 -11 15 -55 20 -99 5 -44 16 -96 25 -115 9 -19 14 -39 10 -44 -3 -6 -3 -16 1 -22 3 -6 8 -32 10 -57 4 -53 16 -69 34 -47 20 24 7 453 -19 625 -53 343 -192 757 -350 1040 -82 148 -273 510 -426 810 -71 139 -135 256 -142 258 -6 2 -19 -8 -28 -22z"/>
 <path d="M5496 8331 c-4 -5 -2 -12 3 -15 5 -4 12 -2 15 3 4 5 2 12 -3 15 -5 4 -12 2 -15 -3z"/>
 <path d="M5479 8286 c-4 -16 -7 -26 -9 -31 -1 -3 -3 -9 -4 -14 -2 -19 -13 -20 -61 -6 -59 18 -126 19 -148 3 -9 -7 -41 -65 -72 -128 -30 -63 -68 -139 -85 -168 -86 -152 -161 -304 -154 -311 21 -19 61 -20 78 -3 9 10 14 21 11 24 -3 3 24 24 60 48 35 23 63 46 60 50 -3 4 3 11 13 15 16 6 16 7 -1 20 -16 12 -15 13 10 18 37 7 150 48 189 69 29 16 32 23 39 84 4 37 18 96 31 132 14 35 22 67 19 70 -2 3 0 10 5 17 5 6 12 22 14 36 3 13 5 25 7 27 1 1 2 5 3 10 1 4 5 12 9 19 4 6 3 14 -3 18 -5 3 -11 4 -11 1z"/>
 <path d="M8376 8251 c-4 -5 -2 -12 3 -15 5 -4 12 -2 15 3 4 5 2 12 -3 15 -5 4 -12 2 -15 -3z"/>
 <path d="M4917 7596 c-9 -13 -13 -26 -10 -30 10 -10 41 13 39 29 -4 26 -13 26 -29 1z"/>
 <path d="M9456 6771 c-4 -5 -2 -12 3 -15 5 -4 12 -2 15 3 4 5 2 12 -3 15 -5 4 -12 2 -15 -3z"/>
 <path d="M10624 5566 c-8 -21 3 -49 16 -41 5 3 10 15 10 25 0 25 -18 36 -26 16z"/>
 <path d="M10616 5411 c-4 -5 -2 -12 3 -15 5 -4 12 -2 15 3 4 5 2 12 -3 15 -5 4 -12 2 -15 -3z"/>
 </g>
<g id="layer13" fill="#6300c3" stroke="none">
 <path d="M7535 8020 c-27 -11 -61 -20 -74 -20 -13 0 -40 -13 -61 -30 -21 -16 -42 -30 -47 -30 -5 0 -49 -38 -97 -85 -48 -47 -94 -85 -102 -85 -8 0 -17 -8 -21 -17 -11 -33 -35 -54 -48 -43 -12 10 -24 -4 -72 -84 -7 -12 -19 -20 -26 -18 -20 3 -40 -25 -33 -45 6 -14 5 -15 -5 -6 -14 14 -51 -1 -48 -20 3 -28 -3 -33 -34 -29 -27 3 -36 -2 -56 -28 -16 -22 -20 -35 -13 -42 7 -7 7 -18 0 -33 -10 -23 -10 -23 -42 -4 l-31 18 -59 -29 c-33 -17 -75 -30 -96 -30 -20 0 -63 -5 -96 -11 -53 -10 -418 -22 -534 -17 -80 3 -114 1 -160 -12 -25 -6 -61 -14 -80 -17 -19 -3 -42 -11 -50 -18 -8 -6 -55 -31 -104 -54 -49 -23 -99 -51 -110 -61 -12 -11 -43 -34 -70 -52 -28 -18 -49 -37 -47 -41 1 -5 -5 -14 -15 -21 -18 -13 -28 -62 -15 -70 4 -3 24 6 45 20 21 14 43 23 51 20 7 -2 38 8 68 23 40 20 57 25 70 17 11 -7 31 -5 70 7 29 9 79 17 111 17 32 0 70 7 87 15 16 9 28 12 27 8 -2 -4 2 -8 7 -8 6 0 9 3 8 7 -2 4 9 3 23 -2 14 -6 29 -8 34 -5 5 3 11 1 15 -5 8 -13 61 -13 85 0 11 6 21 6 25 1 3 -6 18 -6 37 0 21 5 36 5 42 -1 6 -6 40 -10 77 -10 50 0 68 -4 73 -15 4 -11 20 -15 56 -15 36 0 52 4 56 15 9 22 18 19 37 -14 14 -24 26 -30 74 -38 37 -6 57 -13 55 -21 -5 -24 29 -25 53 -2 14 13 23 26 20 28 -12 13 21 32 55 32 42 0 54 8 40 25 -14 17 -3 42 23 49 12 3 18 8 14 12 -4 4 7 16 23 26 24 14 29 22 22 34 -14 24 19 52 65 56 29 2 37 7 35 19 -1 10 6 19 19 22 14 4 20 11 16 21 -5 12 -2 13 26 1 41 -17 113 -28 127 -20 6 4 4 14 -5 29 l-16 23 53 -9 c29 -6 97 -7 151 -4 68 4 103 3 116 -6 16 -10 40 -7 128 16 59 15 128 31 153 35 52 8 73 18 65 32 -4 5 1 9 10 9 25 0 63 29 69 54 3 12 17 29 32 36 34 19 68 66 54 75 -8 5 -6 13 6 26 9 11 14 22 11 26 -4 3 0 15 9 25 13 13 14 21 5 32 -6 7 -9 21 -5 30 3 9 1 23 -6 31 -6 8 -10 20 -7 27 2 7 -9 32 -24 55 -16 23 -29 49 -29 58 0 23 -47 81 -84 104 -49 30 -150 35 -211 11z m-755 -664 c0 -11 -19 -15 -25 -6 -3 5 1 10 9 10 9 0 16 -2 16 -4z m70 -6 c0 -5 -4 -10 -9 -10 -6 0 -13 5 -16 10 -3 6 1 10 9 10 9 0 16 -4 16 -10z"/>
 <path d="M6895 7280 c-8 -12 20 -24 35 -15 6 3 8 11 5 16 -8 12 -32 12 -40 -1z"/>
 </g>
<g id="layer14" fill="#6400b3" stroke="none">
 <path d="M7856 9681 c-4 -5 -2 -12 3 -15 5 -4 12 -2 15 3 4 5 2 12 -3 15 -5 4 -12 2 -15 -3z"/>
 <path d="M7490 8407 c-19 -5 -42 -15 -50 -22 -8 -7 -37 -20 -64 -29 -27 -10 -61 -23 -75 -30 -14 -8 -38 -19 -53 -26 -15 -7 -52 -35 -82 -62 -30 -26 -59 -48 -64 -48 -6 0 -47 -42 -92 -94 -45 -52 -88 -97 -97 -100 -12 -5 -13 -9 -3 -21 9 -11 7 -18 -9 -32 -12 -9 -21 -23 -21 -31 0 -18 -101 -142 -115 -142 -7 0 -25 -10 -40 -22 -26 -21 -27 -22 -9 -35 20 -15 20 -20 -2 -44 -9 -10 -11 -18 -3 -26 7 -7 2 -15 -16 -27 -29 -19 -24 -40 9 -32 11 3 28 1 36 -4 12 -8 11 -10 -6 -10 -26 0 -60 -35 -44 -45 5 -3 8 -10 5 -15 -3 -5 3 -13 12 -19 10 -5 17 -13 15 -18 -2 -4 6 -10 18 -13 12 -3 21 -9 20 -15 -2 -24 37 -14 59 16 20 27 28 31 58 26 35 -6 40 -1 48 40 2 10 4 20 4 22 1 2 10 -4 20 -13 19 -17 20 -17 30 3 7 13 8 22 1 26 -18 11 -10 26 10 20 15 -5 23 0 32 22 7 15 21 36 31 45 9 10 17 22 17 28 0 5 10 9 22 7 15 -1 28 8 42 30 12 18 29 32 39 33 9 0 23 11 29 25 6 14 17 25 24 25 8 0 20 14 29 30 9 17 21 30 28 30 7 0 23 14 35 30 13 17 27 30 33 30 6 0 28 14 49 30 21 17 48 30 61 30 13 0 48 9 77 20 43 16 66 19 118 14 35 -4 69 -13 75 -20 6 -8 17 -14 23 -14 16 0 56 -54 56 -76 0 -9 9 -28 19 -43 11 -15 23 -40 27 -57 4 -16 11 -35 16 -41 6 -7 7 -20 4 -29 -4 -9 -1 -23 5 -30 9 -11 8 -18 -3 -32 -9 -9 -14 -22 -11 -28 2 -6 -3 -17 -12 -24 -11 -9 -12 -16 -5 -25 8 -9 3 -19 -16 -36 -65 -58 -75 -70 -71 -82 6 -20 53 -19 96 2 22 12 42 25 46 31 3 5 16 10 29 10 12 0 33 11 46 25 13 14 28 24 34 23 27 -4 62 21 64 45 1 14 13 37 27 51 14 14 25 29 25 35 0 5 10 11 23 13 22 3 22 4 19 148 -3 142 -11 188 -38 242 -8 14 -14 33 -14 40 0 8 -9 23 -20 33 -11 10 -18 20 -16 23 3 2 -11 25 -31 50 -45 60 -145 119 -243 144 -83 21 -264 30 -320 15z"/>
 <path d="M8446 8131 c-4 -5 -2 -12 3 -15 5 -4 12 -2 15 3 4 5 2 12 -3 15 -5 4 -12 2 -15 -3z"/>
 <path d="M7106 5431 c-4 -5 -2 -12 3 -15 5 -4 12 -2 15 3 4 5 2 12 -3 15 -5 4 -12 2 -15 -3z"/>
 </g>

</svg>